<svg width="15" height="14" viewBox="0 0 15 14" fill="none" xmlns="http://www.w3.org/2000/svg">
<path fill-rule="evenodd" clip-rule="evenodd" d="M8.23437 13.8594L8.45625 13.6375C8.60312 13.4906 8.60312 13.2531 8.45625 13.1062L2.87813 7.53125L14.625 7.53125C14.8312 7.53125 15 7.3625 15 7.15625V6.84375C15 6.6375 14.8312 6.46875 14.625 6.46875L2.87813 6.46875L8.45625 0.890625C8.60312 0.74375 8.60312 0.50625 8.45625 0.359375L8.23438 0.1375C8.0875 -0.009375 7.85 -0.009375 7.70312 0.1375L1.10625 6.73125C0.959374 6.87812 0.959374 7.11562 1.10625 7.2625L7.70312 13.8562C7.85312 14.0062 8.0875 14.0062 8.23437 13.8594Z" fill="#f8f8f8"/>
</svg>
