<svg width="16" height="16" viewBox="0 0 16 16" fill="none" xmlns="http://www.w3.org/2000/svg">
<path fill-rule="evenodd" clip-rule="evenodd" d="M7.76563 1.14063L7.54375 1.3625C7.39688 1.50938 7.39688 1.74688 7.54375 1.89375L13.1219 7.46875H1.375C1.16875 7.46875 1 7.6375 1 7.84375V8.15625C1 8.3625 1.16875 8.53125 1.375 8.53125H13.1219L7.54375 14.1094C7.39688 14.2563 7.39688 14.4938 7.54375 14.6406L7.76562 14.8625C7.9125 15.0094 8.15 15.0094 8.29688 14.8625L14.8938 8.26875C15.0406 8.12188 15.0406 7.88438 14.8938 7.7375L8.29688 1.14375C8.14688 0.993747 7.9125 0.993746 7.76563 1.14063Z" fill="#555555"/>
</svg>
