<svg width="20" height="20" viewBox="0 0 20 20" fill="none" xmlns="http://www.w3.org/2000/svg">
<path fill-rule="evenodd" clip-rule="evenodd" d="M10.293 18.5742L10.5703 18.2969C10.7539 18.1133 10.7539 17.8164 10.5703 17.6328L3.59766 10.6641L18.2812 10.6641C18.5391 10.6641 18.75 10.4531 18.75 10.1953V9.80469C18.75 9.54688 18.5391 9.33594 18.2812 9.33594L3.59766 9.33594L10.5703 2.36328C10.7539 2.17969 10.7539 1.88281 10.5703 1.69922L10.293 1.42187C10.1094 1.23828 9.8125 1.23828 9.62891 1.42187L1.38281 9.66406C1.19922 9.84766 1.19922 10.1445 1.38281 10.3281L9.62891 18.5703C9.81641 18.7578 10.1094 18.7578 10.293 18.5742Z" fill="#929292"/>
</svg>
