<svg width="20" height="20" viewBox="0 0 20 20" fill="none" xmlns="http://www.w3.org/2000/svg">
<mask id="mask0_0_1862" style="mask-type:alpha" maskUnits="userSpaceOnUse" x="0" y="0" width="20" height="17">
<path fill-rule="evenodd" clip-rule="evenodd" d="M0 10.5557C0 5.03275 4.47708 0.555664 10 0.555664C15.5229 0.555664 20 5.03275 20 10.5557C20 12.389 19.5052 14.1064 18.6437 15.5834C18.449 15.9175 18.0778 16.1112 17.691 16.1112H2.30903C1.92222 16.1112 1.55104 15.9175 1.35625 15.5834C0.494792 14.1064 0 12.389 0 10.5557ZM10 4.72233C10.4604 4.72233 10.8333 4.34941 10.8333 3.889C10.8333 3.42858 10.4604 3.05566 10 3.05566C9.53959 3.05566 9.16667 3.42858 9.16667 3.889C9.16667 4.34941 9.53959 4.72233 10 4.72233ZM5.27778 5.00011C4.81736 5.00011 4.44444 5.37302 4.44444 5.83344C4.44444 6.29386 4.81736 6.66678 5.27778 6.66678C5.73819 6.66678 6.11111 6.29386 6.11111 5.83344C6.11111 5.37302 5.73819 5.00011 5.27778 5.00011ZM13.8889 5.83344C13.8889 5.37302 14.2618 5.00011 14.7222 5.00011C15.1826 5.00011 15.5556 5.37302 15.5556 5.83344C15.5556 6.29386 15.1826 6.66678 14.7222 6.66678C14.2618 6.66678 13.8889 6.29386 13.8889 5.83344ZM16.6667 9.72233C16.2062 9.72233 15.8333 10.0952 15.8333 10.5557C15.8333 11.0161 16.2062 11.389 16.6667 11.389C17.1271 11.389 17.5 11.0161 17.5 10.5557C17.5 10.0952 17.1271 9.72233 16.6667 9.72233ZM17.691 15.0001L2.31597 15.0237C1.52778 13.672 1.11111 12.1272 1.11111 10.5557C1.11111 5.65428 5.09861 1.66677 10 1.66677C14.9014 1.66677 18.8889 5.65428 18.8889 10.5557C18.8889 12.1272 18.4722 13.672 17.691 15.0001ZM2.5 10.5557C2.5 10.0952 2.87292 9.72233 3.33333 9.72233C3.79375 9.72233 4.16667 10.0952 4.16667 10.5557C4.16667 11.0161 3.79375 11.389 3.33333 11.389C2.87292 11.389 2.5 11.0161 2.5 10.5557ZM12.6812 3.91955C12.3969 3.82302 12.0757 3.97337 11.975 4.26295L10.1753 9.46226C10.1521 9.46047 10.1292 9.45731 10.1063 9.45416C10.0714 9.44935 10.0366 9.44455 10.0003 9.44455C8.7729 9.44455 7.77811 10.4393 7.77811 11.6668C7.77811 12.8942 8.7729 13.889 10.0003 13.889C11.2278 13.889 12.2226 12.8942 12.2226 11.6668C12.2226 10.8942 11.8274 10.2147 11.2288 9.81642L13.0253 4.62615C13.125 4.33656 12.9719 4.0199 12.6812 3.91955ZM8.88889 11.6668C8.88889 12.2793 9.3875 12.7779 10 12.7779C10.6125 12.7779 11.1111 12.2793 11.1111 11.6668C11.1111 11.0543 10.6125 10.5557 10 10.5557C9.3875 10.5557 8.88889 11.0543 8.88889 11.6668Z" fill="white"/>
</mask>
<g mask="url(#mask0_0_1862)">
<rect y="-1.6665" width="20" height="20" fill="#ffff"/>
</g>
<mask id="mask1_0_1862" style="mask-type:alpha" maskUnits="userSpaceOnUse" x="2" y="17" width="16" height="2">
<path d="M16.8307 17.5H3.16997C3.0302 17.5 2.91699 17.6398 2.91699 17.8125V18.4375C2.91699 18.6102 3.0302 18.75 3.16997 18.75H16.8307C16.9705 18.75 17.0837 18.6102 17.0837 18.4375V17.8125C17.0837 17.6398 16.9705 17.5 16.8307 17.5Z" fill="white"/>
</mask>
<g mask="url(#mask1_0_1862)">
<rect x="-0.231445" y="8.33325" width="18.8889" height="20" fill="#ffff"/>
</g>
</svg>
