<svg width="20" height="20" viewBox="0 0 20 20" fill="none" xmlns="http://www.w3.org/2000/svg">
<path d="M10 0.3125C4.64844 0.3125 0.3125 4.64844 0.3125 10C0.3125 15.3516 4.64844 19.6875 10 19.6875C15.3516 19.6875 19.6875 15.3516 19.6875 10C19.6875 4.64844 15.3516 0.3125 10 0.3125ZM18.4375 10C18.4375 14.6367 14.6836 18.4375 10 18.4375C5.36328 18.4375 1.5625 14.6836 1.5625 10C1.5625 5.36328 5.31641 1.5625 10 1.5625C14.6367 1.5625 18.4375 5.31641 18.4375 10ZM12.6211 13.4492L9.44922 11.1445C9.32812 11.0547 9.25781 10.9141 9.25781 10.7656V4.53125C9.25781 4.27344 9.46875 4.0625 9.72656 4.0625H10.2734C10.5312 4.0625 10.7422 4.27344 10.7422 4.53125V10.2461L13.4961 12.25C13.707 12.4023 13.75 12.6953 13.5977 12.9062L13.2773 13.3477C13.125 13.5547 12.832 13.6016 12.6211 13.4492Z" fill="#929292"/>
</svg>
