<svg width="20" height="20" viewBox="0 0 20 20" fill="none" xmlns="http://www.w3.org/2000/svg">
<path fill-rule="evenodd" clip-rule="evenodd" d="M19.4566 18.1429L11.3222 9.9981L19.4566 1.82332C19.5787 1.70124 19.5787 1.50347 19.4566 1.38138L18.5727 0.497498C18.4506 0.375412 18.2528 0.375412 18.1308 0.497498L9.99637 8.67227L1.85948 0.497498C1.7374 0.375412 1.53963 0.375412 1.41754 0.497498C1.29545 0.619584 0.533655 1.38138 0.533655 1.38138C0.411569 1.50347 0.411569 1.70124 0.533655 1.82332L8.67055 9.9981L0.533656 18.1429C0.411571 18.265 0.411569 18.4628 0.533656 18.5849L1.41754 19.4688C1.53963 19.5908 1.7374 19.5908 1.85948 19.4688L9.99637 11.3239L18.1308 19.4688C18.2528 19.5908 18.4506 19.5908 18.5727 19.4688L19.4566 18.5849C19.5787 18.4628 19.5787 18.265 19.4566 18.1429Z" fill="#929292"/>
</svg>
