<svg width="20" height="20" viewBox="0 0 20 20" fill="none" xmlns="http://www.w3.org/2000/svg">
<path fill-rule="evenodd" clip-rule="evenodd" d="M12.1641 2.5H15.625C16.6602 2.5 17.5 3.33984 17.5 4.375V18.125C17.5 19.1602 16.6602 20 15.625 20H4.375C3.33984 20 2.5 19.1602 2.5 18.125V4.375C2.5 3.33984 3.33984 2.5 4.375 2.5H7.83594C7.82031 2.39844 7.8125 2.29297 7.8125 2.1875C7.8125 0.980469 8.79297 0 10 0C11.207 0 12.1875 0.980469 12.1875 2.1875C12.1875 2.29297 12.1797 2.39844 12.1641 2.5ZM5.9375 10C5.9375 9.48047 6.35547 9.0625 6.875 9.0625C7.39453 9.0625 7.8125 9.48047 7.8125 10C7.8125 10.5195 7.39453 10.9375 6.875 10.9375C6.35547 10.9375 5.9375 10.5195 5.9375 10ZM13.4375 9.375H9.0625C8.89062 9.375 8.75 9.51562 8.75 9.6875V10.3125C8.75 10.4844 8.89062 10.625 9.0625 10.625H13.4375C13.6094 10.625 13.75 10.4844 13.75 10.3125V9.6875C13.75 9.51562 13.6094 9.375 13.4375 9.375ZM13.4375 13.125H9.0625C8.89062 13.125 8.75 13.2656 8.75 13.4375V14.0625C8.75 14.2344 8.89062 14.375 9.0625 14.375H13.4375C13.6094 14.375 13.75 14.2344 13.75 14.0625V13.4375C13.75 13.2656 13.6094 13.125 13.4375 13.125ZM6.875 12.8125C6.35547 12.8125 5.9375 13.2305 5.9375 13.75C5.9375 14.2695 6.35547 14.6875 6.875 14.6875C7.39453 14.6875 7.8125 14.2695 7.8125 13.75C7.8125 13.2305 7.39453 12.8125 6.875 12.8125ZM10 1.25C10.5195 1.25 10.9375 1.66797 10.9375 2.1875C10.9375 2.70703 10.5195 3.125 10 3.125C9.48047 3.125 9.0625 2.70703 9.0625 2.1875C9.0625 1.66797 9.48047 1.25 10 1.25ZM15.625 18.75C15.9688 18.75 16.25 18.4688 16.25 18.125V4.375C16.25 4.03125 15.9688 3.75 15.625 3.75H13.75V4.53125C13.75 4.78906 13.5391 5 13.2812 5H6.71875C6.46094 5 6.25 4.78906 6.25 4.53125V3.75H4.375C4.03125 3.75 3.75 4.03125 3.75 4.375V18.125C3.75 18.4688 4.03125 18.75 4.375 18.75H15.625Z" fill="#ffff"/>
</svg>
