<svg width="20" height="20" viewBox="0 0 20 20" fill="none" xmlns="http://www.w3.org/2000/svg">
<path fill-rule="evenodd" clip-rule="evenodd" d="M1.25 16.25H19.6875C19.8602 16.25 20 16.3898 20 16.5625V17.1875C20 17.3602 19.8602 17.5 19.6875 17.5H0.625C0.279687 17.5 0 17.2203 0 16.875V2.8125C0 2.63984 0.139844 2.5 0.3125 2.5H0.9375C1.11016 2.5 1.25 2.63984 1.25 2.8125V16.25ZM16.5625 13.75H17.1875C17.3594 13.75 17.5 13.6094 17.5 13.4375V4.0625C17.5 3.89062 17.3594 3.75 17.1875 3.75H16.5625C16.3906 3.75 16.25 3.89062 16.25 4.0625V13.4375C16.25 13.6094 16.3906 13.75 16.5625 13.75ZM12.8125 13.75H13.4375C13.6094 13.75 13.75 13.6094 13.75 13.4375V7.8125C13.75 7.64062 13.6094 7.5 13.4375 7.5H12.8125C12.6406 7.5 12.5 7.64062 12.5 7.8125V13.4375C12.5 13.6094 12.6406 13.75 12.8125 13.75ZM5.9375 13.75H5.3125C5.14062 13.75 5 13.6094 5 13.4375V10.3125C5 10.1406 5.14062 10 5.3125 10H5.9375C6.10938 10 6.25 10.1406 6.25 10.3125V13.4375C6.25 13.6094 6.10938 13.75 5.9375 13.75ZM9.0625 13.75H9.6875C9.85938 13.75 10 13.6094 10 13.4375V5.3125C10 5.14062 9.85938 5 9.6875 5H9.0625C8.89062 5 8.75 5.14062 8.75 5.3125V13.4375C8.75 13.6094 8.89062 13.75 9.0625 13.75Z" fill="#ffff"/>
</svg>
