<svg width="20" height="20" viewBox="0 0 20 20" fill="none" xmlns="http://www.w3.org/2000/svg">
<path fill-rule="evenodd" clip-rule="evenodd" d="M0.0387203 9.37625C0.0387203 4.89672 4.50656 1.26709 10.0192 1.26709C15.5319 1.26709 19.9997 4.89672 19.9997 9.37625C19.9997 13.8558 15.5319 17.4854 10.0192 17.4854C8.74047 17.4854 7.5241 17.2827 6.3935 16.9279C5.25899 17.731 3.36815 18.733 0.970494 18.733C0.596225 18.733 0.260942 18.5108 0.112794 18.1677C-0.0353538 17.8246 0.0348216 17.4269 0.292132 17.154C0.311625 17.1384 1.5202 15.8363 2.1011 14.3002C0.814549 12.9318 0.0387203 11.232 0.0387203 9.37625ZM18.7522 9.37624C18.7522 5.59456 14.8341 2.51464 10.0193 2.51464C5.20444 2.51464 1.28631 5.59456 1.28631 9.37624C1.28631 10.8421 1.8828 12.2495 3.00951 13.4425L3.54362 14.0117L3.26682 14.7408C2.83797 15.8792 2.14401 16.8655 1.67618 17.4542C3.39548 17.2866 4.77949 16.5458 5.67618 15.9104L6.183 15.5517L6.77559 15.7388C7.82433 16.0702 8.91594 16.2378 10.0193 16.2378C14.8341 16.2378 18.7522 13.1579 18.7522 9.37624Z" fill="#ffff"/>
<path d="M5.3125 10.4167H10.9375C11.1094 10.4167 11.25 10.5574 11.25 10.7292V11.3542C11.25 11.5261 11.1094 11.6667 10.9375 11.6667H5.3125C5.14062 11.6667 5 11.5261 5 11.3542V10.7292C5 10.5574 5.14062 10.4167 5.3125 10.4167Z" fill="#ffff"/>
<path d="M5.3125 6.66675H14.6875C14.8594 6.66675 15 6.80737 15 6.97925V7.60425C15 7.77612 14.8594 7.91675 14.6875 7.91675H5.3125C5.14062 7.91675 5 7.77612 5 7.60425V6.97925C5 6.80737 5.14062 6.66675 5.3125 6.66675Z" fill="#ffff"/>
</svg>
