<svg width="20" height="20" viewBox="0 0 20 20" fill="none" xmlns="http://www.w3.org/2000/svg">
<path fill-rule="evenodd" clip-rule="evenodd" d="M8 2.18758C8 3.33993 8.8922 4.27091 9.99653 4.27091C11.1009 4.27091 11.9931 3.33993 11.9931 2.18758C11.9931 1.03524 11.1009 0.104248 9.99653 0.104248C8.8922 0.104248 8 1.03524 8 2.18758ZM9.99653 7.91675C11.1009 7.91675 11.9931 8.84774 11.9931 10.0001C11.9931 11.1524 11.1009 12.0834 9.99653 12.0834C8.8922 12.0834 8 11.1524 8 10.0001C8 8.84774 8.8922 7.91675 9.99653 7.91675ZM9.99653 19.8959C8.8922 19.8959 8 18.9649 8 17.8126C8 16.6602 8.8922 15.7292 9.99653 15.7292C11.1009 15.7292 11.9931 16.6602 11.9931 17.8126C11.9931 18.9649 11.1009 19.8959 9.99653 19.8959Z" fill="#929292"/>
</svg>
