<svg width="20" height="20" viewBox="0 0 20 20" fill="none" xmlns="http://www.w3.org/2000/svg">
<path fill-rule="evenodd" clip-rule="evenodd" d="M9.50209 14.7782L1.87346 6.5697C1.74033 6.4265 1.66699 6.236 1.66699 6.0334C1.66699 5.83084 1.7403 5.64038 1.87342 5.49714L2.12901 5.22212C2.4038 4.92645 2.85096 4.92645 3.12582 5.22212L10.0005 12.6193L16.8752 5.22212C17.0083 5.07888 17.1853 5 17.3736 5C17.5619 5 17.7389 5.07888 17.872 5.22212L18.1276 5.49714C18.265 5.64501 18.3337 5.83921 18.3337 6.0334C18.3337 6.22764 18.265 6.42183 18.1276 6.5697L10.4989 14.7782C10.2241 15.0739 9.77694 15.0739 9.50209 14.7782Z" fill="#ffff"/>
</svg>
