<svg width="20" height="20" viewBox="0 0 20 20" fill="none" xmlns="http://www.w3.org/2000/svg">
<path d="M4.74597 9.67578C4.88306 9.71875 5.04435 9.65625 5.12097 9.53125L5.50403 8.86719C5.81452 8.33203 6.27823 8.02344 6.77419 8.02344C7.27016 8.02344 7.73387 8.33203 8.04435 8.86719L8.42742 9.53125C8.5121 9.67578 8.67742 9.71484 8.80242 9.67578C8.94758 9.63281 9.04435 9.5 9.03226 9.35156C8.89919 7.70703 7.73387 6.5625 6.77419 6.5625C5.81452 6.5625 4.64919 7.70703 4.51613 9.35156C4.50403 9.49609 4.60081 9.63281 4.74597 9.67578ZM11.1976 9.67578C11.3347 9.71875 11.496 9.65625 11.5726 9.53125L11.9556 8.86719C12.2661 8.33203 12.7298 8.02344 13.2258 8.02344C13.7218 8.02344 14.1855 8.33203 14.496 8.86719L14.879 9.53125C14.9637 9.67578 15.129 9.71484 15.254 9.67578C15.3992 9.63281 15.496 9.5 15.4839 9.35156C15.3508 7.70703 14.1855 6.5625 13.2258 6.5625C12.2661 6.5625 11.1008 7.70703 10.9677 9.35156C10.9556 9.49609 11.0524 9.63281 11.1976 9.67578ZM14.9637 12.5312C13.746 12.9102 11.9355 13.125 10 13.125C8.06452 13.125 6.25403 12.9102 5.03629 12.5312C4.82258 12.4648 4.58871 12.5117 4.41935 12.6523C4.25 12.7969 4.16935 13.0117 4.20565 13.2305C4.57661 15.3789 7.56048 16.875 10.004 16.875C12.4476 16.875 15.4274 15.3789 15.8024 13.2305C15.8387 13.0156 15.7581 12.7969 15.5887 12.6523C15.4153 12.5078 15.1774 12.4609 14.9637 12.5312ZM10 15.625C8.58871 15.625 6.89516 14.9883 6.02823 14.0508C8.34677 14.4727 11.6573 14.4727 13.9758 14.0508C13.1048 14.9883 11.4113 15.625 10 15.625ZM10 0.3125C4.47581 0.3125 0 4.64844 0 10C0 15.3516 4.47581 19.6875 10 19.6875C15.5242 19.6875 20 15.3516 20 10C20 4.64844 15.5242 0.3125 10 0.3125ZM10 18.4375C5.19758 18.4375 1.29032 14.6523 1.29032 10C1.29032 5.34766 5.19758 1.5625 10 1.5625C14.8024 1.5625 18.7097 5.34766 18.7097 10C18.7097 14.6523 14.8024 18.4375 10 18.4375Z" fill="#ffff"/>
</svg>
