<svg width="20" height="20" viewBox="0 0 20 20" fill="none" xmlns="http://www.w3.org/2000/svg">
<path fill-rule="evenodd" clip-rule="evenodd" d="M16.6133 5.51953L17.2969 4.83594C17.4805 4.65234 17.4805 4.35547 17.2969 4.17188L17.0742 3.94922C16.8906 3.76562 16.5938 3.76562 16.4102 3.94922L15.7266 4.63281C14.3281 3.42187 12.543 2.64453 10.582 2.51562V1.25H11.5586C11.8164 1.25 12.0273 1.03906 12.0273 0.78125V0.46875C12.0273 0.210938 11.8164 0 11.5586 0H8.43359C8.17578 0 7.96484 0.210938 7.96484 0.46875V0.78125C7.96484 1.03906 8.17578 1.25 8.43359 1.25H9.33203V2.52344C4.8125 2.86328 1.25 6.64062 1.25 11.25C1.25 16.082 5.16797 20 10 20C14.832 20 18.75 16.082 18.75 11.25C18.75 9.05859 17.9453 7.05469 16.6133 5.51953ZM10 18.75C5.85547 18.75 2.5 15.3945 2.5 11.25C2.5 7.10547 5.85547 3.75 10 3.75C14.1445 3.75 17.5 7.10547 17.5 11.25C17.5 15.3945 14.1445 18.75 10 18.75ZM9.375 13.2812C9.375 13.5391 9.58594 13.75 9.84375 13.75H10.1562C10.4141 13.75 10.625 13.5391 10.625 13.2812V6.71875C10.625 6.46094 10.4141 6.25 10.1562 6.25H9.84375C9.58594 6.25 9.375 6.46094 9.375 6.71875V13.2812Z" fill="#ffff"/>
</svg>
