<svg width="20" height="20" viewBox="0 0 20 20" fill="none" xmlns="http://www.w3.org/2000/svg">
<path fill-rule="evenodd" clip-rule="evenodd" d="M19.7222 2.22217H19.1667C19.0132 2.22217 18.8889 2.34647 18.8889 2.49995V3.17113L1.11111 7.35411V6.94439C1.11111 6.79092 0.986806 6.66661 0.833333 6.66661H0.277778C0.124306 6.66661 0 6.79092 0 6.94439V13.0555C0 13.209 0.124306 13.3333 0.277778 13.3333H0.833333C0.986806 13.3333 1.11111 13.209 1.11111 13.0555V12.6458L5.64514 13.7124C5.59097 13.9486 5.55556 14.1916 5.55556 14.444C5.55556 16.285 7.04792 17.7774 8.88889 17.7774C10.4559 17.7774 11.7517 16.6906 12.1056 15.2326L18.8889 16.8288V17.4999C18.8889 17.6534 19.0132 17.7777 19.1667 17.7777H19.7222C19.8757 17.7777 20 17.6534 20 17.4999V2.49995C20 2.34647 19.8757 2.22217 19.7222 2.22217ZM8.88889 16.6666C7.66354 16.6666 6.66667 15.6697 6.66667 14.4444C6.66667 14.2795 6.69167 14.1211 6.72778 13.9673L11.0378 14.9815C10.7958 15.9468 9.92813 16.6666 8.88889 16.6666ZM1.11111 8.49543V11.5045L18.8889 15.6874V4.31245L1.11111 8.49543Z" fill="#ffff"/>
</svg>
