<svg width="20" height="20" viewBox="0 0 20 20" fill="none" xmlns="http://www.w3.org/2000/svg">
<path fill-rule="evenodd" clip-rule="evenodd" d="M14.7953 13.7466L19.8246 18.7758C20.0078 18.9591 20.0078 19.2554 19.8246 19.4386L19.4386 19.8246C19.2554 20.0078 18.9591 20.0078 18.7758 19.8246L13.7466 14.7953C13.6608 14.7057 13.6101 14.5887 13.6101 14.4639V14.0663C12.1637 15.3996 10.2339 16.2183 8.10916 16.2183C3.62963 16.2183 0 12.5887 0 8.10916C0 3.62963 3.62963 0 8.10916 0C12.5887 0 16.2183 3.62963 16.2183 8.10916C16.2183 10.2339 15.3996 12.1637 14.0624 13.6101H14.4639C14.5887 13.6101 14.7057 13.6569 14.7953 13.7466ZM1.2476 8.10915C1.2476 11.9025 4.31582 14.9708 8.1092 14.9708C11.9026 14.9708 14.9708 11.9025 14.9708 8.10915C14.9708 4.31578 11.9026 1.24755 8.1092 1.24755C4.31582 1.24755 1.2476 4.31578 1.2476 8.10915Z" fill="#ffff"/>
</svg>
