<svg width="20" height="20" viewBox="0 0 20 20" fill="none" xmlns="http://www.w3.org/2000/svg">
<path fill-rule="evenodd" clip-rule="evenodd" d="M9.70703 1.42578L9.42969 1.70313C9.24609 1.88672 9.24609 2.1836 9.42969 2.36719L16.4023 9.33594L1.71875 9.33594C1.46094 9.33594 1.25 9.54688 1.25 9.80469V10.1953C1.25 10.4531 1.46094 10.6641 1.71875 10.6641L16.4023 10.6641L9.42969 17.6367C9.24609 17.8203 9.24609 18.1172 9.42969 18.3008L9.70703 18.5781C9.89062 18.7617 10.1875 18.7617 10.3711 18.5781L18.6172 10.3359C18.8008 10.1523 18.8008 9.85547 18.6172 9.67188L10.3711 1.42969C10.1836 1.24219 9.89063 1.24219 9.70703 1.42578Z" fill="#555555"/>
</svg>
