<svg width="20" height="20" viewBox="0 0 20 20" fill="none" xmlns="http://www.w3.org/2000/svg">
<path fill-rule="evenodd" clip-rule="evenodd" d="M5.22178 9.50184L13.4303 1.87322C13.5735 1.74009 13.764 1.66675 13.9666 1.66675C14.1692 1.66675 14.3596 1.74005 14.5029 1.87318L14.7779 2.12877C15.0735 2.40355 15.0735 2.85072 14.7779 3.12557L7.38072 10.0003L14.7779 16.8749C14.9211 17.008 15 17.1851 15 17.3734C15 17.5616 14.9211 17.7386 14.7779 17.8718L14.5029 18.1273C14.355 18.2647 14.1608 18.3334 13.9666 18.3334C13.7724 18.3334 13.5782 18.2647 13.4303 18.1273L5.22178 10.4987C4.92607 10.2239 4.92607 9.7767 5.22178 9.50184Z" fill="#929292"/>
</svg>
