<svg width="20" height="20" viewBox="0 0 20 20" fill="none" xmlns="http://www.w3.org/2000/svg">
<path fill-rule="evenodd" clip-rule="evenodd" d="M17.292 2.5H15.417V0.46875C15.417 0.210938 15.2061 0 14.9482 0H14.6357C14.3779 0 14.167 0.210938 14.167 0.46875V2.5H6.66699V0.46875C6.66699 0.210938 6.45605 0 6.19824 0H5.88574C5.62793 0 5.41699 0.210938 5.41699 0.46875V2.5H3.54199C2.50684 2.5 1.66699 3.33984 1.66699 4.375V18.125C1.66699 19.1602 2.50684 20 3.54199 20H17.292C18.3271 20 19.167 19.1602 19.167 18.125V4.375C19.167 3.33984 18.3271 2.5 17.292 2.5ZM3.54199 3.75H17.292C17.6357 3.75 17.917 4.03125 17.917 4.375V6.25H2.91699V4.375C2.91699 4.03125 3.19824 3.75 3.54199 3.75ZM3.54199 18.75H17.292C17.6357 18.75 17.917 18.4688 17.917 18.125V7.5H2.91699V18.125C2.91699 18.4688 3.19824 18.75 3.54199 18.75ZM7.44824 12.5H5.88574C5.62793 12.5 5.41699 12.2891 5.41699 12.0312V10.4688C5.41699 10.2109 5.62793 10 5.88574 10H7.44824C7.70606 10 7.91699 10.2109 7.91699 10.4688V12.0312C7.91699 12.2891 7.70606 12.5 7.44824 12.5ZM9.63574 12.5H11.1982C11.4561 12.5 11.667 12.2891 11.667 12.0312V10.4688C11.667 10.2109 11.4561 10 11.1982 10H9.63574C9.37793 10 9.16699 10.2109 9.16699 10.4688V12.0312C9.16699 12.2891 9.37793 12.5 9.63574 12.5ZM14.9482 12.5H13.3857C13.1279 12.5 12.917 12.2891 12.917 12.0312V10.4688C12.917 10.2109 13.1279 10 13.3857 10H14.9482C15.2061 10 15.417 10.2109 15.417 10.4688V12.0312C15.417 12.2891 15.2061 12.5 14.9482 12.5ZM9.63574 16.25H11.1982C11.4561 16.25 11.667 16.0391 11.667 15.7812V14.2188C11.667 13.9609 11.4561 13.75 11.1982 13.75H9.63574C9.37793 13.75 9.16699 13.9609 9.16699 14.2188V15.7812C9.16699 16.0391 9.37793 16.25 9.63574 16.25ZM7.44824 16.25H5.88574C5.62793 16.25 5.41699 16.0391 5.41699 15.7812V14.2188C5.41699 13.9609 5.62793 13.75 5.88574 13.75H7.44824C7.70606 13.75 7.91699 13.9609 7.91699 14.2188V15.7812C7.91699 16.0391 7.70606 16.25 7.44824 16.25ZM13.3857 16.25H14.9482C15.2061 16.25 15.417 16.0391 15.417 15.7812V14.2188C15.417 13.9609 15.2061 13.75 14.9482 13.75H13.3857C13.1279 13.75 12.917 13.9609 12.917 14.2188V15.7812C12.917 16.0391 13.1279 16.25 13.3857 16.25Z" fill="#929292"/>
</svg>
