<svg width="20" height="20" viewBox="0 0 20 20" fill="none" xmlns="http://www.w3.org/2000/svg">
<path fill-rule="evenodd" clip-rule="evenodd" d="M14.7782 10.4982L6.5697 18.1268C6.4265 18.2599 6.236 18.3333 6.0334 18.3333C5.83084 18.3333 5.64038 18.2599 5.49714 18.1268L5.22212 17.8712C4.92645 17.5964 4.92645 17.1493 5.22212 16.8744L12.6193 9.99974L5.22212 3.12508C5.07888 2.99196 5 2.81491 5 2.62663C5 2.43838 5.07888 2.26137 5.22212 2.1282L5.49714 1.87265C5.64501 1.73526 5.83921 1.66658 6.0334 1.66658C6.22764 1.66658 6.42183 1.73526 6.5697 1.87265L14.7782 9.50132C15.0739 9.77614 15.0739 10.2233 14.7782 10.4982Z" fill="#929292"/>
</svg>
