<svg width="18" height="24" viewBox="0 0 18 24" fill="none" xmlns="http://www.w3.org/2000/svg">
<path fill-rule="evenodd" clip-rule="evenodd" d="M17.1657 12.8092C17.8222 12.141 18.0804 11.1595 17.8414 10.2476C17.8198 10.1659 17.7998 10.0911 17.7814 10.0221L17.7813 10.0221L17.7813 10.022C17.6723 9.61389 17.6177 9.40966 17.6176 9.2054C17.6175 9.00084 17.6721 8.79624 17.7814 8.38676C17.7998 8.31764 17.8198 8.24269 17.8414 8.16091C18.0809 7.24947 17.8222 6.26846 17.1657 5.59935L17.0394 5.47233C16.7159 5.14729 16.5604 4.99102 16.4569 4.80568C16.3611 4.6341 16.3099 4.43759 16.2113 4.05916L16.2113 4.05908C16.1908 3.98025 16.1682 3.89352 16.1427 3.79748C15.9022 2.88091 15.1916 2.15951 14.2881 1.91391C14.2091 1.89249 14.1365 1.87305 14.0695 1.85511L14.0694 1.85507C13.6778 1.75019 13.4766 1.69631 13.3025 1.59557C13.1186 1.48912 12.9649 1.33036 12.6489 1.00383L12.5254 0.876395C11.8614 0.203088 10.8856 -0.0611922 9.97926 0.184411L9.79009 0.237103C9.37204 0.353907 9.16642 0.411355 8.96101 0.410633C8.76221 0.409935 8.56359 0.354747 8.17275 0.246145L8.17274 0.246141L8.17226 0.246008C8.10418 0.227093 8.03028 0.206558 7.94953 0.184411C7.0507 -0.0635268 6.06876 0.203088 5.40479 0.877796C5.35081 0.932927 5.30108 0.983977 5.25495 1.03134L5.25465 1.03165L5.25457 1.03173L5.25457 1.03174C4.95398 1.34034 4.80615 1.49211 4.62972 1.59469C4.45899 1.69395 4.26148 1.74715 3.87283 1.85184C3.80291 1.87067 3.7268 1.89117 3.64354 1.91391C2.7391 2.15951 2.02844 2.88091 1.78751 3.79655C1.76313 3.88872 1.74137 3.97232 1.72152 4.04859L1.72151 4.04862C1.62046 4.43689 1.56878 4.63546 1.47153 4.80841C1.36973 4.98944 1.218 5.14239 0.907455 5.45545C0.863135 5.50013 0.815581 5.54807 0.764475 5.59982C0.107977 6.26846 -0.150233 7.24994 0.0892997 8.16184C0.110859 8.24339 0.13086 8.31813 0.149304 8.38705C0.258284 8.79428 0.312874 8.99827 0.313073 9.20232C0.313273 9.40711 0.258684 9.61195 0.149304 10.0224L0.149272 10.0225C0.130837 10.0917 0.110847 10.1667 0.0892997 10.2485C-0.150233 11.16 0.108444 12.141 0.764942 12.8101L0.891232 12.9371C1.21477 13.2622 1.37031 13.4184 1.4738 13.6038C1.56961 13.7754 1.6208 13.9719 1.71938 14.3504L1.71941 14.3505C1.73993 14.4293 1.76251 14.516 1.78798 14.612C1.88183 14.9687 2.06393 15.2825 2.28385 15.5636L0.0561479 21.0443C-0.145097 21.5379 0.220039 22.0734 0.746732 22.0734L0.750098 22.0735C0.757874 22.0736 0.765659 22.0733 1.29488 22.053L3.23638 21.9787L4.92899 23.7665C5.07934 23.9253 5.27545 24 5.46969 24C5.75778 24 6.04074 23.8351 6.16354 23.5349L8.61257 17.5102C8.84119 17.4318 9.08937 17.4316 9.31809 17.5097L11.7667 23.5349C11.889 23.8351 12.1724 24 12.4605 24C12.6547 24 12.8509 23.9253 13.0012 23.7665L14.6938 21.9791L16.6378 22.0536C17.1646 22.0738 17.1723 22.0741 17.1801 22.0739L17.1835 22.0739C17.7102 22.0739 18.0753 21.5383 17.874 21.0448L15.6468 15.5645C15.8667 15.2834 16.0488 14.9696 16.1427 14.6134C16.167 14.5213 16.1887 14.4378 16.2086 14.3616L16.2087 14.361C16.3098 13.9723 16.3615 13.7736 16.4588 13.6005C16.5606 13.4194 16.7123 13.2664 17.0229 12.9534L17.0231 12.9531C17.0673 12.9086 17.1148 12.8607 17.1657 12.8092ZM4.48267 9.05602C4.48267 6.58458 6.49372 4.57352 8.96516 4.57352C11.4371 4.57352 13.4477 6.58458 13.4477 9.05602C13.4477 11.5275 11.4366 13.5385 8.96516 13.5385C6.49372 13.5385 4.48267 11.5275 4.48267 9.05602ZM5.97671 9.05601C5.97671 10.7038 7.31725 12.0443 8.96503 12.0443C10.6128 12.0443 11.9534 10.7038 11.9534 9.05601C11.9534 7.40823 10.6128 6.06768 8.96503 6.06768C7.31725 6.06768 5.97671 7.40823 5.97671 9.05601ZM3.8564 20.4597L5.21655 21.8965L6.79663 18.0098C6.18169 17.9664 5.58169 17.7128 5.11757 17.2393L5.10144 17.223C4.89242 17.0105 4.77971 16.896 4.64654 16.8151C4.49069 16.7205 4.30682 16.672 3.90777 16.5668L3.9072 16.5667C3.82796 16.5458 3.74022 16.5226 3.64255 16.4965C3.62212 16.4909 3.60346 16.4817 3.58481 16.4725L3.58479 16.4725L3.58476 16.4724L3.58474 16.4724C3.56888 16.4646 3.55303 16.4568 3.53609 16.4512L1.87616 20.5358L3.24016 20.4833L3.8564 20.4597ZM16.0544 20.5354L14.7301 20.4848L14.0742 20.4597L12.714 21.8965L11.1312 18.0023C11.748 17.9598 12.348 17.7123 12.813 17.2389L12.8309 17.2207C13.0479 16.9999 13.1623 16.8834 13.298 16.8026C13.4493 16.7125 13.627 16.6667 14.003 16.57C14.0874 16.5482 14.1818 16.5239 14.288 16.496C14.3081 16.4905 14.3265 16.4815 14.3449 16.4725C14.3611 16.4646 14.3772 16.4566 14.3945 16.4512L16.0544 20.5354ZM13.894 15.0546C14.2853 14.9482 14.593 14.633 14.6981 14.2324C14.887 13.5118 14.976 13.1593 15.1487 12.8541C15.3212 12.5493 15.5773 12.2918 16.1002 11.7619C16.3888 11.4677 16.5027 11.033 16.3963 10.6272L16.3946 10.6208C16.0153 9.20729 16.0144 9.20422 16.3963 7.78131C16.5032 7.37555 16.3893 6.94084 16.1002 6.64621C15.0753 5.6131 15.0738 5.60741 14.725 4.27987C14.7162 4.24661 14.7073 4.21253 14.6981 4.17757C14.593 3.77648 14.2848 3.46131 13.8954 3.35532C13.193 3.1647 12.8443 3.07371 12.5437 2.8996C12.2391 2.72312 11.9838 2.46126 11.4599 1.92372C11.1742 1.63516 10.7539 1.5203 10.3715 1.62629C9.66146 1.8223 9.31336 1.92012 8.96526 1.9201C8.61682 1.92008 8.26838 1.82203 7.5569 1.62629C7.11519 1.50722 6.7127 1.67765 6.4699 1.92559C5.94494 2.4592 5.69588 2.71844 5.39746 2.8936C5.1 3.06821 4.7535 3.15929 4.03581 3.35532C3.64453 3.46084 3.33682 3.77602 3.23177 4.17664C3.04278 4.89729 2.95396 5.24993 2.78129 5.55513C2.60882 5.85998 2.3527 6.11749 1.82959 6.64714C1.54103 6.94131 1.4271 7.37602 1.53356 7.78177C1.91533 9.20039 1.91411 9.20495 1.53684 10.6154L1.53356 10.6277C1.42663 11.0334 1.54056 11.4682 1.82959 11.7628C2.85449 12.7959 2.85599 12.8016 3.20487 14.1291C3.21361 14.1624 3.22257 14.1965 3.23177 14.2314C3.33682 14.6325 3.64453 14.9477 4.03581 15.0541C4.11419 15.0752 4.18815 15.0949 4.25821 15.1135C5.18351 15.3592 5.42787 15.4242 6.18227 16.1916C6.55581 16.5717 7.1278 16.6375 7.57138 16.3559C8.41791 15.8204 9.51192 15.8208 10.3585 16.355C10.8048 16.6412 11.374 16.5712 11.7476 16.1925C12.5087 15.4166 12.7556 15.3522 13.6668 15.1142C13.7382 15.0956 13.8138 15.0758 13.894 15.0546Z" fill="#F9744F"/>
</svg>
