<svg width="24" height="24" viewBox="0 0 24 24" fill="none" xmlns="http://www.w3.org/2000/svg">
<mask id="path-1-inside-1_70_6194" fill="white">
<path d="M23.57 13.7496C23.57 13.3744 23.4784 12.9696 23.2688 12.5608C23.32 12.3908 23.3568 12.2192 23.3848 12.0472C23.4768 11.9924 23.5668 11.9252 23.6472 11.836C24.1832 11.2388 23.9912 10.0768 23.8292 9.4372C23.8125 9.37342 23.7872 9.31219 23.754 9.2552C23.8032 9.0744 23.8292 8.8856 23.8292 8.6884C23.8296 3.8972 18.5233 0 12.0002 0C5.47702 0 0.170669 3.8972 0.170669 8.6884C0.170669 8.8852 0.197069 9.0744 0.245868 9.2552C0.213 9.31187 0.187845 9.37267 0.171069 9.436C0.00907059 10.0752 -0.182928 11.2352 0.350667 11.8316C0.403467 12.1512 0.492266 12.4724 0.627465 12.7904C0.500501 13.0943 0.433799 13.4199 0.431066 13.7492C0.431066 14.0548 0.459866 14.3512 0.512266 14.6408C0.310507 15.1124 0.205761 15.6198 0.204269 16.1328C0.204669 19.722 2.25105 24 12.0002 24C21.7493 24 23.7956 19.722 23.7956 16.1332C23.7942 15.6204 23.6895 15.1131 23.488 14.6416C23.5408 14.352 23.57 14.0552 23.57 13.7496ZM23.0296 8.6884C23.0296 10.708 18.5973 12.0648 12.0002 12.0648C5.40302 12.0648 0.970661 10.7076 0.970661 8.6884C0.970661 4.3244 5.91861 0.7744 12.0002 0.7744C18.0817 0.7744 23.0296 4.3244 23.0296 8.6884ZM12.0002 23.2256C4.70382 23.2256 1.00426 20.8396 1.00426 16.1332C1.00426 16.09 1.00506 16.0464 1.00706 16.0032C2.49345 18.978 6.18301 20.484 12.0006 20.484C17.8177 20.484 21.5065 18.9784 22.9932 16.0044C22.9948 16.0472 22.9956 16.0904 22.9956 16.1332C22.9956 20.84 19.2965 23.2256 12.0002 23.2256ZM22.9804 13.5224L22.976 13.514L22.9564 13.5864C21.9949 15.9632 18.9753 17.6084 13.0853 17.7864L11.139 19.6948C11.0814 19.6936 11.021 19.6936 10.9638 19.692L8.82098 17.6484C4.31023 17.1804 1.89545 15.672 1.04866 13.604L1.02426 13.5144L1.01706 13.5296C1.00826 13.5068 0.997061 13.4852 0.988661 13.4624C1.62305 14.456 2.72104 15.3904 4.44223 16.1232C5.79261 16.6984 6.9902 16.9224 8.02899 16.8928L6.36981 15.3104C5.84648 15.1759 5.3343 15.0012 4.83782 14.788C4.24732 14.5399 3.68216 14.2352 3.15024 13.8784C3.28064 13.9248 3.41704 13.9564 3.56624 13.9564C3.88463 13.9564 4.19263 13.848 4.46423 13.752C4.54663 13.7232 4.66423 13.6816 4.75782 13.6552C4.79942 13.7284 4.84582 13.8188 4.88102 13.8884C5.08022 14.2788 5.35222 14.8124 5.92461 14.9772C6.02821 15.0064 6.13661 15.0216 6.24741 15.0216C6.66461 15.0216 7.0242 14.8132 7.3414 14.6296C7.4166 14.5856 7.5166 14.528 7.5986 14.4868C7.6518 14.552 7.71179 14.634 7.75779 14.6968C8.01419 15.0448 8.36539 15.5216 8.94498 15.5972C8.99498 15.604 9.04418 15.6068 9.09378 15.6068C9.58898 15.6068 9.98057 15.2968 10.2954 15.0472C10.3618 14.9944 10.4486 14.9252 10.5218 14.8732C10.5838 14.9316 10.6554 15.0052 10.7106 15.062C11.0266 15.3872 11.4202 15.7928 12.0006 15.7928C12.5809 15.7928 12.9741 15.3876 13.2905 15.062C13.3457 15.0052 13.4169 14.9316 13.4793 14.8732C13.5529 14.9252 13.6393 14.9944 13.7057 15.0468C14.0201 15.2964 14.4121 15.6068 14.9073 15.6068C14.9565 15.6068 15.0065 15.6036 15.0553 15.5976C15.1877 15.5801 15.3162 15.5408 15.4357 15.4812L14.4893 16.4096C15.5181 16.6492 16.7665 16.66 18.2517 16.3356C21.1945 15.6932 22.6944 14.2572 23.2216 12.6988C23.1671 12.9803 23.0864 13.256 22.9804 13.5224ZM1.45626 12.2456L1.50986 12.246C1.60186 12.246 1.69785 12.2424 1.79465 12.2396C1.87465 12.2364 1.95505 12.2332 2.03385 12.2332C2.07425 12.2332 2.10705 12.2344 2.13385 12.2356C2.15785 12.316 2.18265 12.4188 2.20145 12.4972C2.27345 12.7944 2.36705 13.1648 2.58985 13.4632C2.11905 13.0764 1.74265 12.6676 1.45626 12.2456ZM15.6973 15.31C15.9197 15.1308 16.0925 14.9004 16.2433 14.696C16.2901 14.6332 16.3505 14.5512 16.4033 14.486C16.4849 14.5276 16.5841 14.5848 16.6597 14.6288C16.9765 14.8128 17.3353 15.0208 17.7529 15.0208C17.8633 15.0208 17.9721 15.0056 18.0757 14.9764C18.6481 14.8116 18.9205 14.2776 19.1193 13.8872C19.1549 13.8176 19.2009 13.7276 19.2425 13.6548C19.3361 13.6808 19.4541 13.7228 19.5361 13.7516C19.8081 13.8472 20.1157 13.956 20.4345 13.956C20.5229 13.956 20.6065 13.9436 20.6889 13.9272C19.9353 14.4108 18.9745 14.8084 17.7681 15.0716C17.088 15.223 16.394 15.3029 15.6973 15.31ZM21.5329 13.272C21.6701 13.0164 21.7409 12.7348 21.7981 12.4988C21.8169 12.4208 21.8417 12.3176 21.8653 12.2376C21.8917 12.236 21.9241 12.2352 21.9633 12.2352C22.0425 12.2352 22.1237 12.2384 22.2045 12.2408C22.2577 12.2428 22.3089 12.2432 22.3612 12.2448C22.1345 12.6243 21.8557 12.97 21.5329 13.272ZM23.07 11.3188C22.9544 11.4472 22.738 11.4736 22.492 11.4736C22.3225 11.4736 22.1381 11.4612 21.9641 11.4612C21.7277 11.4612 21.5081 11.484 21.3625 11.5904C20.9925 11.8612 21.0853 12.9028 20.6377 13.138C20.5781 13.1688 20.5101 13.182 20.4349 13.182C20.0585 13.182 19.5169 12.8552 19.1181 12.8548C19.0525 12.8535 18.9872 12.8646 18.9257 12.8876C18.4913 13.058 18.3389 14.0952 17.8609 14.2324C17.8259 14.2423 17.7897 14.2471 17.7533 14.2468C17.3325 14.2468 16.7553 13.662 16.3153 13.662C16.2853 13.662 16.2561 13.6648 16.2269 13.6704C15.7645 13.764 15.4441 14.7644 14.9549 14.8288C14.9393 14.8304 14.9229 14.8316 14.9073 14.8316C14.4541 14.8316 13.9145 14.038 13.4457 14.038L13.4205 14.0388C12.9453 14.0688 12.4917 15.0176 12.001 15.0176C11.5098 15.0176 11.057 14.0688 10.5818 14.0388C10.5732 14.0383 10.5647 14.0381 10.5562 14.038C10.0874 14.038 9.54738 14.8316 9.09458 14.8316C9.07867 14.8317 9.06277 14.8307 9.04698 14.8288C8.55779 14.7644 8.23859 13.764 7.77499 13.6704C7.7459 13.6645 7.71627 13.6617 7.6866 13.662C7.2466 13.662 6.669 14.2468 6.24781 14.2468C6.21144 14.2471 6.17521 14.2423 6.14021 14.2324C5.66182 14.0948 5.50942 13.0572 5.07462 12.8876C5.01312 12.8647 4.94785 12.8535 4.88222 12.8548C4.48383 12.8548 3.94303 13.1816 3.56664 13.1816C3.49144 13.1816 3.42264 13.1684 3.36264 13.1372C2.91544 12.9012 3.00704 11.8596 2.63824 11.5896C2.49145 11.482 2.27105 11.4596 2.03425 11.4596C1.86065 11.4596 1.67825 11.472 1.50986 11.472C1.26266 11.472 1.04546 11.446 0.929861 11.3164C0.747463 11.1132 0.759863 10.6408 0.810263 10.2468C2.51905 12.1284 7.3866 12.8388 12.0006 12.8388C16.6149 12.8388 21.4821 12.1284 23.1904 10.2468C23.2408 10.6416 23.2528 11.1148 23.07 11.3188Z"/>
</mask>
<path d="M23.57 13.7496C23.57 13.3744 23.4784 12.9696 23.2688 12.5608C23.32 12.3908 23.3568 12.2192 23.3848 12.0472C23.4768 11.9924 23.5668 11.9252 23.6472 11.836C24.1832 11.2388 23.9912 10.0768 23.8292 9.4372C23.8125 9.37342 23.7872 9.31219 23.754 9.2552C23.8032 9.0744 23.8292 8.8856 23.8292 8.6884C23.8296 3.8972 18.5233 0 12.0002 0C5.47702 0 0.170669 3.8972 0.170669 8.6884C0.170669 8.8852 0.197069 9.0744 0.245868 9.2552C0.213 9.31187 0.187845 9.37267 0.171069 9.436C0.00907059 10.0752 -0.182928 11.2352 0.350667 11.8316C0.403467 12.1512 0.492266 12.4724 0.627465 12.7904C0.500501 13.0943 0.433799 13.4199 0.431066 13.7492C0.431066 14.0548 0.459866 14.3512 0.512266 14.6408C0.310507 15.1124 0.205761 15.6198 0.204269 16.1328C0.204669 19.722 2.25105 24 12.0002 24C21.7493 24 23.7956 19.722 23.7956 16.1332C23.7942 15.6204 23.6895 15.1131 23.488 14.6416C23.5408 14.352 23.57 14.0552 23.57 13.7496ZM23.0296 8.6884C23.0296 10.708 18.5973 12.0648 12.0002 12.0648C5.40302 12.0648 0.970661 10.7076 0.970661 8.6884C0.970661 4.3244 5.91861 0.7744 12.0002 0.7744C18.0817 0.7744 23.0296 4.3244 23.0296 8.6884ZM12.0002 23.2256C4.70382 23.2256 1.00426 20.8396 1.00426 16.1332C1.00426 16.09 1.00506 16.0464 1.00706 16.0032C2.49345 18.978 6.18301 20.484 12.0006 20.484C17.8177 20.484 21.5065 18.9784 22.9932 16.0044C22.9948 16.0472 22.9956 16.0904 22.9956 16.1332C22.9956 20.84 19.2965 23.2256 12.0002 23.2256ZM22.9804 13.5224L22.976 13.514L22.9564 13.5864C21.9949 15.9632 18.9753 17.6084 13.0853 17.7864L11.139 19.6948C11.0814 19.6936 11.021 19.6936 10.9638 19.692L8.82098 17.6484C4.31023 17.1804 1.89545 15.672 1.04866 13.604L1.02426 13.5144L1.01706 13.5296C1.00826 13.5068 0.997061 13.4852 0.988661 13.4624C1.62305 14.456 2.72104 15.3904 4.44223 16.1232C5.79261 16.6984 6.9902 16.9224 8.02899 16.8928L6.36981 15.3104C5.84648 15.1759 5.3343 15.0012 4.83782 14.788C4.24732 14.5399 3.68216 14.2352 3.15024 13.8784C3.28064 13.9248 3.41704 13.9564 3.56624 13.9564C3.88463 13.9564 4.19263 13.848 4.46423 13.752C4.54663 13.7232 4.66423 13.6816 4.75782 13.6552C4.79942 13.7284 4.84582 13.8188 4.88102 13.8884C5.08022 14.2788 5.35222 14.8124 5.92461 14.9772C6.02821 15.0064 6.13661 15.0216 6.24741 15.0216C6.66461 15.0216 7.0242 14.8132 7.3414 14.6296C7.4166 14.5856 7.5166 14.528 7.5986 14.4868C7.6518 14.552 7.71179 14.634 7.75779 14.6968C8.01419 15.0448 8.36539 15.5216 8.94498 15.5972C8.99498 15.604 9.04418 15.6068 9.09378 15.6068C9.58898 15.6068 9.98057 15.2968 10.2954 15.0472C10.3618 14.9944 10.4486 14.9252 10.5218 14.8732C10.5838 14.9316 10.6554 15.0052 10.7106 15.062C11.0266 15.3872 11.4202 15.7928 12.0006 15.7928C12.5809 15.7928 12.9741 15.3876 13.2905 15.062C13.3457 15.0052 13.4169 14.9316 13.4793 14.8732C13.5529 14.9252 13.6393 14.9944 13.7057 15.0468C14.0201 15.2964 14.4121 15.6068 14.9073 15.6068C14.9565 15.6068 15.0065 15.6036 15.0553 15.5976C15.1877 15.5801 15.3162 15.5408 15.4357 15.4812L14.4893 16.4096C15.5181 16.6492 16.7665 16.66 18.2517 16.3356C21.1945 15.6932 22.6944 14.2572 23.2216 12.6988C23.1671 12.9803 23.0864 13.256 22.9804 13.5224ZM1.45626 12.2456L1.50986 12.246C1.60186 12.246 1.69785 12.2424 1.79465 12.2396C1.87465 12.2364 1.95505 12.2332 2.03385 12.2332C2.07425 12.2332 2.10705 12.2344 2.13385 12.2356C2.15785 12.316 2.18265 12.4188 2.20145 12.4972C2.27345 12.7944 2.36705 13.1648 2.58985 13.4632C2.11905 13.0764 1.74265 12.6676 1.45626 12.2456ZM15.6973 15.31C15.9197 15.1308 16.0925 14.9004 16.2433 14.696C16.2901 14.6332 16.3505 14.5512 16.4033 14.486C16.4849 14.5276 16.5841 14.5848 16.6597 14.6288C16.9765 14.8128 17.3353 15.0208 17.7529 15.0208C17.8633 15.0208 17.9721 15.0056 18.0757 14.9764C18.6481 14.8116 18.9205 14.2776 19.1193 13.8872C19.1549 13.8176 19.2009 13.7276 19.2425 13.6548C19.3361 13.6808 19.4541 13.7228 19.5361 13.7516C19.8081 13.8472 20.1157 13.956 20.4345 13.956C20.5229 13.956 20.6065 13.9436 20.6889 13.9272C19.9353 14.4108 18.9745 14.8084 17.7681 15.0716C17.088 15.223 16.394 15.3029 15.6973 15.31ZM21.5329 13.272C21.6701 13.0164 21.7409 12.7348 21.7981 12.4988C21.8169 12.4208 21.8417 12.3176 21.8653 12.2376C21.8917 12.236 21.9241 12.2352 21.9633 12.2352C22.0425 12.2352 22.1237 12.2384 22.2045 12.2408C22.2577 12.2428 22.3089 12.2432 22.3612 12.2448C22.1345 12.6243 21.8557 12.97 21.5329 13.272ZM23.07 11.3188C22.9544 11.4472 22.738 11.4736 22.492 11.4736C22.3225 11.4736 22.1381 11.4612 21.9641 11.4612C21.7277 11.4612 21.5081 11.484 21.3625 11.5904C20.9925 11.8612 21.0853 12.9028 20.6377 13.138C20.5781 13.1688 20.5101 13.182 20.4349 13.182C20.0585 13.182 19.5169 12.8552 19.1181 12.8548C19.0525 12.8535 18.9872 12.8646 18.9257 12.8876C18.4913 13.058 18.3389 14.0952 17.8609 14.2324C17.8259 14.2423 17.7897 14.2471 17.7533 14.2468C17.3325 14.2468 16.7553 13.662 16.3153 13.662C16.2853 13.662 16.2561 13.6648 16.2269 13.6704C15.7645 13.764 15.4441 14.7644 14.9549 14.8288C14.9393 14.8304 14.9229 14.8316 14.9073 14.8316C14.4541 14.8316 13.9145 14.038 13.4457 14.038L13.4205 14.0388C12.9453 14.0688 12.4917 15.0176 12.001 15.0176C11.5098 15.0176 11.057 14.0688 10.5818 14.0388C10.5732 14.0383 10.5647 14.0381 10.5562 14.038C10.0874 14.038 9.54738 14.8316 9.09458 14.8316C9.07867 14.8317 9.06277 14.8307 9.04698 14.8288C8.55779 14.7644 8.23859 13.764 7.77499 13.6704C7.7459 13.6645 7.71627 13.6617 7.6866 13.662C7.2466 13.662 6.669 14.2468 6.24781 14.2468C6.21144 14.2471 6.17521 14.2423 6.14021 14.2324C5.66182 14.0948 5.50942 13.0572 5.07462 12.8876C5.01312 12.8647 4.94785 12.8535 4.88222 12.8548C4.48383 12.8548 3.94303 13.1816 3.56664 13.1816C3.49144 13.1816 3.42264 13.1684 3.36264 13.1372C2.91544 12.9012 3.00704 11.8596 2.63824 11.5896C2.49145 11.482 2.27105 11.4596 2.03425 11.4596C1.86065 11.4596 1.67825 11.472 1.50986 11.472C1.26266 11.472 1.04546 11.446 0.929861 11.3164C0.747463 11.1132 0.759863 10.6408 0.810263 10.2468C2.51905 12.1284 7.3866 12.8388 12.0006 12.8388C16.6149 12.8388 21.4821 12.1284 23.1904 10.2468C23.2408 10.6416 23.2528 11.1148 23.07 11.3188Z" fill="#929292"/>
<path d="M23.2688 12.5608L21.3538 11.984L21.1213 12.7559L21.4891 13.4733L23.2688 12.5608ZM23.3848 12.0472L22.3613 10.3289L21.5606 10.8059L21.4108 11.7259L23.3848 12.0472ZM23.6472 11.836L25.1328 13.175L25.1357 13.1719L23.6472 11.836ZM23.8292 9.4372L25.768 8.94615L25.7659 8.93787L25.7638 8.92961L23.8292 9.4372ZM23.754 9.2552L21.8242 8.73005L21.6044 9.53771L22.0254 10.2611L23.754 9.2552ZM23.8292 8.6884L21.8292 8.68823V8.6884H23.8292ZM0.245868 9.2552L1.97593 10.2586L2.39381 9.53816L2.17677 8.73403L0.245868 9.2552ZM0.171069 9.436L-1.76225 8.92386L-1.765 8.93424L-1.76764 8.94466L0.171069 9.436ZM0.350667 11.8316L2.32392 11.5056L2.22909 10.9316L1.84118 10.498L0.350667 11.8316ZM0.627465 12.7904L2.47285 13.5615L2.79785 12.7837L2.46802 12.0079L0.627465 12.7904ZM0.431066 13.7492L-1.56886 13.7326L-1.56893 13.7409V13.7492H0.431066ZM0.512266 14.6408L2.35107 15.4274L2.5872 14.8755L2.48031 14.2847L0.512266 14.6408ZM0.204269 16.1328L-1.79573 16.127L-1.79573 16.133L0.204269 16.1328ZM23.7956 16.1332H25.7956L25.7956 16.1274L23.7956 16.1332ZM23.488 14.6416L21.5205 14.2829L21.4126 14.8745L21.6489 15.4275L23.488 14.6416ZM1.00706 16.0032L2.79616 15.1093L-0.635716 8.24083L-0.990799 15.9107L1.00706 16.0032ZM22.9932 16.0044L24.9918 15.9297L21.2043 15.1101L22.9932 16.0044ZM22.976 13.514L24.7477 12.5859L22.3792 8.06492L21.0455 12.9914L22.976 13.514ZM22.9564 13.5864L24.8105 14.3365L24.8555 14.2251L24.887 14.109L22.9564 13.5864ZM13.0853 17.7864L13.0249 15.7873L12.2434 15.8109L11.6851 16.3583L13.0853 17.7864ZM11.139 19.6948L11.0973 21.6944L11.9384 21.7119L12.5392 21.1229L11.139 19.6948ZM10.9638 19.692L9.58344 21.1393L10.1396 21.6697L10.9078 21.6912L10.9638 19.692ZM8.82098 17.6484L10.2013 16.2011L9.70692 15.7296L9.02738 15.6591L8.82098 17.6484ZM1.04866 13.604L-0.881067 14.1295L-0.848767 14.2481L-0.802185 14.3619L1.04866 13.604ZM1.02426 13.5144L2.95399 12.9889L1.53254 7.76913L-0.783234 12.6583L1.02426 13.5144ZM1.01706 13.5296L-0.848788 14.2497L0.82943 18.5979L2.82455 14.3857L1.01706 13.5296ZM0.988661 13.4624L2.67437 12.3861L-0.888027 14.1538L0.988661 13.4624ZM4.44223 16.1232L5.22599 14.2832L5.22568 14.283L4.44223 16.1232ZM8.02899 16.8928L8.08596 18.892L12.8798 18.7554L9.40932 15.4455L8.02899 16.8928ZM6.36981 15.3104L7.75014 13.8631L7.37276 13.5032L6.86769 13.3734L6.36981 15.3104ZM4.83782 14.788L5.6271 12.9503L5.61989 12.9472L5.61265 12.9442L4.83782 14.788ZM3.15024 13.8784L3.82072 11.9941L2.03605 15.5393L3.15024 13.8784ZM4.46423 13.752L3.80433 11.864L3.79771 11.8663L4.46423 13.752ZM4.75782 13.6552L6.49665 12.667L5.72263 11.305L4.2149 11.7303L4.75782 13.6552ZM4.88102 13.8884L3.09628 14.791L3.09953 14.7974L4.88102 13.8884ZM5.92461 14.9772L5.37126 16.8992L5.38204 16.9022L5.92461 14.9772ZM7.3414 14.6296L8.34332 16.3606L8.35143 16.3558L7.3414 14.6296ZM7.5986 14.4868L9.14821 13.2224L8.13407 11.9795L6.70068 12.6997L7.5986 14.4868ZM7.75779 14.6968L6.14432 15.8786L6.14763 15.8831L7.75779 14.6968ZM8.94498 15.5972L9.21451 13.6154L9.20366 13.614L8.94498 15.5972ZM10.2954 15.0472L11.538 16.6144L11.5402 16.6126L10.2954 15.0472ZM10.5218 14.8732L11.8931 13.4174L10.6999 12.2934L9.3635 13.2427L10.5218 14.8732ZM10.7106 15.062L12.1449 13.6682L12.1448 13.6681L10.7106 15.062ZM13.2905 15.062L11.8563 13.6681L11.8562 13.6682L13.2905 15.062ZM13.4793 14.8732L14.6334 13.2398L13.3025 12.2994L12.1127 13.413L13.4793 14.8732ZM13.7057 15.0468L14.9493 13.4804L14.9447 13.4768L13.7057 15.0468ZM15.0553 15.5976L15.2994 17.5827L15.3085 17.5815L15.3176 17.5803L15.0553 15.5976ZM15.4357 15.4812L16.8363 16.9089L14.5436 13.6912L15.4357 15.4812ZM14.4893 16.4096L13.0887 14.9819L10.4896 17.5316L14.0357 18.3575L14.4893 16.4096ZM18.2517 16.3356L17.8251 14.3816L17.8249 14.3817L18.2517 16.3356ZM23.2216 12.6988L25.1852 13.0791L21.3271 12.0579L23.2216 12.6988ZM1.50986 12.246L1.49488 14.2459L1.50237 14.246H1.50986V12.246ZM1.79465 12.2396L1.85248 14.2388L1.86354 14.2384L1.87459 14.238L1.79465 12.2396ZM2.13385 12.2356L4.05029 11.6635L3.64363 10.3012L2.22331 10.2376L2.13385 12.2356ZM2.20145 12.4972L0.256578 12.9636L0.257675 12.9681L2.20145 12.4972ZM2.58985 13.4632L1.32022 15.0085L4.19243 12.2666L2.58985 13.4632ZM16.2433 14.696L14.6396 13.5009L14.6339 13.5086L16.2433 14.696ZM16.4033 14.486L17.3117 12.7042L15.8685 11.9684L14.849 13.2273L16.4033 14.486ZM16.6597 14.6288L15.6537 16.3573L15.6552 16.3583L16.6597 14.6288ZM18.0757 14.9764L18.6183 16.9014L18.629 16.8983L18.0757 14.9764ZM19.1193 13.8872L17.3387 12.9764L17.337 12.9797L19.1193 13.8872ZM19.2425 13.6548L19.7778 11.7278L18.2782 11.3112L17.506 12.6625L19.2425 13.6548ZM19.5361 13.7516L20.1993 11.8648L20.1988 11.8646L19.5361 13.7516ZM20.6889 13.9272L21.769 15.6104L20.2985 11.9657L20.6889 13.9272ZM17.7681 15.0716L17.3418 13.1175L17.3336 13.1194L17.7681 15.0716ZM21.7981 12.4988L23.7418 12.9699L23.7424 12.9674L21.7981 12.4988ZM21.8653 12.2376L21.7443 10.2413L20.3439 10.3261L19.947 11.6717L21.8653 12.2376ZM22.2045 12.2408L22.2796 10.2422L22.2717 10.2419L22.2638 10.2417L22.2045 12.2408ZM22.3612 12.2448L24.0782 13.2706L25.8233 10.3496L22.4223 10.2457L22.3612 12.2448ZM21.3625 11.5904L20.1824 9.97562L20.1812 9.97649L21.3625 11.5904ZM20.6377 13.138L21.5559 14.9148L21.568 14.9085L20.6377 13.138ZM19.1181 12.8548L19.0782 14.8544L19.0971 14.8548L19.1161 14.8548L19.1181 12.8548ZM18.9257 12.8876L18.2255 11.0142L18.2104 11.0198L18.1953 11.0257L18.9257 12.8876ZM17.8609 14.2324L18.4037 16.1573L18.4127 16.1548L17.8609 14.2324ZM17.7533 14.2468L17.7709 12.2469L17.7621 12.2468H17.7533V14.2468ZM16.2269 13.6704L15.8502 11.7062L15.8402 11.7081L15.8301 11.7102L16.2269 13.6704ZM14.9549 14.8288L15.159 16.8184L15.1875 16.8154L15.216 16.8117L14.9549 14.8288ZM13.4457 14.038V12.038H13.414L13.3823 12.039L13.4457 14.038ZM13.4205 14.0388L13.3571 12.0398L13.3258 12.0408L13.2945 12.0428L13.4205 14.0388ZM10.5818 14.0388L10.7078 12.0428L10.6994 12.0422L10.691 12.0418L10.5818 14.0388ZM10.5562 14.038L10.5718 12.0381L10.564 12.038H10.5562V14.038ZM9.09458 14.8316V12.8316L9.08506 12.8316L9.09458 14.8316ZM9.04698 14.8288L8.78594 16.8117L8.79449 16.8128L8.80304 16.8139L9.04698 14.8288ZM7.77499 13.6704L8.17081 11.71L8.1699 11.7098L7.77499 13.6704ZM7.6866 13.662V15.662H7.69588L7.70516 15.6619L7.6866 13.662ZM6.24781 14.2468V12.2468H6.23902L6.23023 12.2469L6.24781 14.2468ZM6.14021 14.2324L5.58736 16.1545L5.59737 16.1573L6.14021 14.2324ZM5.07462 12.8876L5.80142 11.0243L5.78758 11.0189L5.77366 11.0137L5.07462 12.8876ZM4.88222 12.8548V14.8548H4.90157L4.92092 14.8544L4.88222 12.8548ZM3.36264 13.1372L2.42917 14.906L2.43993 14.9116L3.36264 13.1372ZM2.63824 11.5896L1.45589 13.2027L1.4568 13.2034L2.63824 11.5896ZM0.929861 11.3164L2.4224 9.9851L2.4182 9.98042L0.929861 11.3164ZM0.810263 10.2468L2.29083 8.90221L-0.623536 5.6931L-1.17357 9.99303L0.810263 10.2468ZM23.1904 10.2468L25.1743 9.99354L24.6251 5.69137L21.7097 8.90239L23.1904 10.2468ZM25.57 13.7496C25.57 13.0441 25.3969 12.3277 25.0486 11.6483L21.4891 13.4733C21.56 13.6115 21.57 13.7047 21.57 13.7496H25.57ZM25.1839 13.1376C25.2658 12.8656 25.3202 12.6058 25.3589 12.3685L21.4108 11.7259C21.3935 11.8326 21.3743 11.916 21.3538 11.984L25.1839 13.1376ZM24.4083 13.7655C24.6267 13.6354 24.8868 13.4481 25.1328 13.175L22.1616 10.497C22.2469 10.4023 22.3269 10.3494 22.3613 10.3289L24.4083 13.7655ZM25.1357 13.1719C25.9005 12.3197 26.0017 11.2635 26 10.6469C25.9981 9.96941 25.8679 9.34035 25.768 8.94615L21.8905 9.92826C21.9191 10.0415 21.9475 10.1717 21.9683 10.3054C21.9895 10.4414 21.9997 10.5613 22 10.6581C22.0003 10.7596 21.9894 10.7939 21.9939 10.7774C21.9992 10.7576 22.0348 10.6382 22.1588 10.5001L25.1357 13.1719ZM25.7638 8.92961C25.7012 8.69115 25.6066 8.46229 25.4826 8.24925L22.0254 10.2611C21.9678 10.1621 21.9238 10.0557 21.8947 9.94479L25.7638 8.92961ZM25.6839 9.78035C25.7794 9.42916 25.8292 9.06379 25.8292 8.6884H21.8292C21.8292 8.69881 21.8286 8.7066 21.8278 8.71245C21.827 8.7183 21.8259 8.72398 21.8242 8.73005L25.6839 9.78035ZM25.8292 8.68857C25.8295 5.50215 24.0615 2.78395 21.5449 0.935571C19.0264 -0.91422 15.6443 -2 12.0002 -2V2C14.8791 2 17.4117 2.86282 19.1771 4.15943C20.9444 5.45745 21.8294 7.08346 21.8292 8.68823L25.8292 8.68857ZM12.0002 -2C8.35598 -2 4.97387 -0.914218 2.45533 0.935558C-0.061292 2.78392 -1.82933 5.50205 -1.82933 8.6884H2.17067C2.17067 7.08355 3.0558 5.45749 4.82314 4.15944C6.58855 2.86282 9.12119 2 12.0002 2V-2ZM-1.82933 8.6884C-1.82933 9.06595 -1.77844 9.43029 -1.68503 9.77637L2.17677 8.73403C2.17258 8.71851 2.17067 8.70445 2.17067 8.6884H-1.82933ZM-1.48419 8.25176C-1.60637 8.46242 -1.69989 8.68845 -1.76225 8.92386L2.10439 9.94814C2.07557 10.0569 2.03237 10.1613 1.97593 10.2586L-1.48419 8.25176ZM-1.76764 8.94466C-1.86744 9.33846 -1.99761 9.96653 -1.99997 10.6429C-2.00211 11.258 -1.90227 12.313 -1.13985 13.1652L1.84118 10.498C1.96524 10.6367 2.00076 10.7563 2.00605 10.776C2.0105 10.7925 1.99965 10.7582 2.00001 10.6568C2.00035 10.5601 2.01064 10.4403 2.03185 10.3044C2.0527 10.1707 2.08106 10.0406 2.10978 9.92734L-1.76764 8.94466ZM-1.62259 12.1576C-1.54594 12.6215 -1.41531 13.0973 -1.2131 13.5729L2.46802 12.0079C2.39984 11.8475 2.35287 11.6809 2.32392 11.5056L-1.62259 12.1576ZM-1.21792 12.0193C-1.44479 12.5623 -1.56398 13.1442 -1.56886 13.7326L2.431 13.7658C2.43158 13.6956 2.44579 13.6262 2.47285 13.5615L-1.21792 12.0193ZM-1.56893 13.7492C-1.56893 14.1817 -1.52807 14.5974 -1.45578 14.9969L2.48031 14.2847C2.4478 14.105 2.43107 13.9279 2.43107 13.7492H-1.56893ZM-1.32654 13.8542C-1.63389 14.5726 -1.79345 15.3456 -1.79572 16.127L2.20426 16.1386C2.20497 15.8941 2.2549 15.6522 2.35107 15.4274L-1.32654 13.8542ZM-1.79573 16.133C-1.79549 18.3089 -1.16298 20.9061 1.1274 22.9157C3.36792 24.8815 6.87678 26 12.0002 26V22C7.37442 22 4.98554 20.9795 3.7655 19.909C2.59531 18.8823 2.20443 17.5459 2.20427 16.1326L-1.79573 16.133ZM12.0002 26C17.1235 26 20.6324 24.8816 22.8729 22.9158C25.1632 20.9062 25.7956 18.309 25.7956 16.1332H21.7956C21.7956 17.5462 21.4049 18.8824 20.2348 19.909C19.0148 20.9795 16.6259 22 12.0002 22V26ZM25.7956 16.1274C25.7934 15.3464 25.6341 14.5739 25.3272 13.8557L21.6489 15.4275C21.745 15.6524 21.7949 15.8944 21.7956 16.139L25.7956 16.1274ZM25.4556 15.0003C25.5285 14.6007 25.57 14.1837 25.57 13.7496H21.57C21.57 13.9267 21.5532 14.1033 21.5205 14.2829L25.4556 15.0003ZM21.0296 8.6884C21.0296 8.37331 21.224 8.31642 20.9914 8.50083C20.7461 8.69534 20.249 8.96269 19.4034 9.22155C17.7318 9.73326 15.1922 10.0648 12.0002 10.0648V14.0648C15.4053 14.0648 18.3804 13.7179 20.5743 13.0464C21.6614 12.7136 22.6847 12.263 23.4766 11.6351C24.2813 10.9971 25.0296 10.0133 25.0296 8.6884H21.0296ZM12.0002 10.0648C8.80817 10.0648 6.26857 9.73317 4.59695 9.22141C3.75135 8.96253 3.25421 8.69516 3.00885 8.50063C2.77619 8.31616 2.97066 8.3731 2.97066 8.6884H-1.02934C-1.02934 10.0133 -0.280821 10.9971 0.523743 11.635C1.31561 12.2628 2.33888 12.7134 3.42601 13.0462C5.61986 13.7178 8.595 14.0648 12.0002 14.0648V10.0648ZM2.97066 8.6884C2.97066 7.31788 3.74479 5.88654 5.37077 4.71988C6.99243 3.55633 9.33155 2.7744 12.0002 2.7744V-1.2256C8.58722 -1.2256 5.41159 -0.232529 3.03888 1.46992C0.670504 3.16926 -1.02934 5.69492 -1.02934 8.6884H2.97066ZM12.0002 2.7744C14.6688 2.7744 17.0079 3.55633 18.6295 4.71988C20.2555 5.88654 21.0296 7.31788 21.0296 8.6884H25.0296C25.0296 5.69492 23.3298 3.16926 20.9614 1.46992C18.5887 -0.232529 15.4131 -1.2256 12.0002 -1.2256V2.7744ZM12.0002 21.2256C8.50788 21.2256 6.21428 20.6434 4.85013 19.7636C3.63216 18.978 3.00426 17.8661 3.00426 16.1332H-0.995739C-0.995739 19.1067 0.226146 21.541 2.68204 23.125C4.99175 24.6148 8.1961 25.2256 12.0002 25.2256V21.2256ZM3.00426 16.1332C3.00426 16.1141 3.00463 16.102 3.00492 16.0957L-0.990799 15.9107C-0.994506 15.9908 -0.995739 16.0659 -0.995739 16.1332H3.00426ZM-0.782038 16.8971C1.24398 20.9519 6.0152 22.484 12.0006 22.484V18.484C6.35082 18.484 3.74291 17.0041 2.79616 15.1093L-0.782038 16.8971ZM12.0006 22.484C17.9856 22.484 22.7556 20.9523 24.7822 16.8987L21.2043 15.1101C20.2573 17.0045 17.6498 18.484 12.0006 18.484V22.484ZM20.9946 16.0791C20.9953 16.0968 20.9956 16.1151 20.9956 16.1332H24.9956C24.9956 16.0657 24.9944 15.9976 24.9918 15.9297L20.9946 16.0791ZM20.9956 16.1332C20.9956 17.8664 20.3677 18.9783 19.15 19.7637C17.7859 20.6435 15.4925 21.2256 12.0002 21.2256V25.2256C15.8041 25.2256 19.0084 24.6149 21.3181 23.1252C23.774 21.5411 24.9956 19.1068 24.9956 16.1332H20.9956ZM24.7521 12.5943L24.7477 12.5859L21.2044 14.4421L21.2088 14.4505L24.7521 12.5943ZM21.0455 12.9914L21.0259 13.0638L24.887 14.109L24.9066 14.0366L21.0455 12.9914ZM21.1024 12.8363C20.6246 14.0173 18.7811 15.6134 13.0249 15.7873L13.1458 19.7855C19.1694 19.6034 23.3651 17.9091 24.8105 14.3365L21.1024 12.8363ZM11.6851 16.3583L9.73875 18.2667L12.5392 21.1229L14.4856 19.2145L11.6851 16.3583ZM11.1806 17.6952C11.0359 17.6922 11.0973 17.695 11.0197 17.6928L10.9078 21.6912C10.9541 21.6925 10.9976 21.6931 11.0274 21.6934C11.0622 21.6938 11.0799 21.694 11.0973 21.6944L11.1806 17.6952ZM12.3441 18.2447L10.2013 16.2011L7.44066 19.0957L9.58344 21.1393L12.3441 18.2447ZM9.02738 15.6591C4.75388 15.2157 3.31859 13.8696 2.89951 12.8461L-0.802185 14.3619C0.472316 17.4744 3.86658 19.1451 8.61459 19.6377L9.02738 15.6591ZM2.97839 13.0785L2.95399 12.9889L-0.905467 14.0399L-0.881067 14.1295L2.97839 13.0785ZM-0.783234 12.6583L-0.790434 12.6735L2.82455 14.3857L2.83175 14.3705L-0.783234 12.6583ZM2.88291 12.8095C2.86789 12.7706 2.85438 12.7387 2.84551 12.7182C2.84101 12.7078 2.83712 12.699 2.8345 12.6931C2.8323 12.6881 2.82955 12.682 2.82933 12.6815C2.82843 12.6795 2.82904 12.6808 2.83014 12.6833C2.83133 12.686 2.83371 12.6915 2.83678 12.6987C2.84278 12.7129 2.85327 12.7382 2.86535 12.771L-0.888027 14.1538C-0.871747 14.198 -0.85671 14.2346 -0.845971 14.2599C-0.835714 14.2841 -0.826601 14.3045 -0.823907 14.3105C-0.819078 14.3214 -0.822266 14.3143 -0.825329 14.3072C-0.829356 14.2979 -0.838173 14.2772 -0.848788 14.2497L2.88291 12.8095ZM-0.697044 14.5387C0.202504 15.9476 1.65882 17.1119 3.65877 17.9634L5.22568 14.283C3.78327 13.6689 3.04361 12.9644 2.67437 12.3861L-0.697044 14.5387ZM3.65846 17.9632C5.22816 18.6318 6.71245 18.9311 8.08596 18.892L7.97203 14.8936C7.26795 14.9137 6.35707 14.765 5.22599 14.2832L3.65846 17.9632ZM9.40932 15.4455L7.75014 13.8631L4.98948 16.7577L6.64866 18.3401L9.40932 15.4455ZM6.86769 13.3734C6.4439 13.2644 6.02915 13.123 5.6271 12.9503L4.04854 16.6257C4.63946 16.8795 5.24906 17.0873 5.87193 17.2474L6.86769 13.3734ZM5.61265 12.9442C5.14089 12.7459 4.68939 12.5026 4.26443 12.2175L2.03605 15.5393C2.67494 15.9679 3.35374 16.3338 4.063 16.6318L5.61265 12.9442ZM2.47976 15.7627C2.75725 15.8614 3.12598 15.9564 3.56624 15.9564V11.9564C3.7081 11.9564 3.80403 11.9882 3.82072 11.9941L2.47976 15.7627ZM3.56624 15.9564C4.28294 15.9564 4.91116 15.7153 5.13074 15.6377L3.79771 11.8663C3.72745 11.8912 3.67762 11.9087 3.63001 11.9243C3.58432 11.9393 3.55292 11.9485 3.53065 11.9543C3.48254 11.9667 3.50258 11.9564 3.56624 11.9564V15.9564ZM5.12412 15.64C5.17099 15.6236 5.20723 15.6109 5.24482 15.5982C5.28408 15.585 5.30081 15.5801 5.30075 15.5801L4.2149 11.7303C4.04818 11.7773 3.8623 11.8437 3.80434 11.864L5.12412 15.64ZM3.019 14.6434C3.02439 14.6529 3.03484 14.6719 3.05037 14.7016C3.06521 14.7299 3.08074 14.7603 3.09629 14.791L6.66576 12.9858C6.63008 12.9152 6.56453 12.7865 6.49665 12.667L3.019 14.6434ZM3.09953 14.7974C3.22753 15.0483 3.84066 16.4584 5.37126 16.8991L6.47796 13.0553C6.57621 13.0836 6.66035 13.1284 6.72395 13.1746C6.78355 13.2179 6.81279 13.2534 6.81632 13.2577C6.81885 13.2608 6.8059 13.2452 6.77695 13.1953C6.74602 13.1421 6.71531 13.0829 6.66252 12.9794L3.09953 14.7974ZM5.38204 16.9022C5.66224 16.9812 5.95321 17.0216 6.24741 17.0216V13.0216C6.32001 13.0216 6.39419 13.0316 6.46719 13.0522L5.38204 16.9022ZM6.24741 17.0216C7.28669 17.0216 8.10422 16.4989 8.34331 16.3605L6.33949 12.8987C6.25565 12.9472 6.2026 12.9777 6.15236 13.0046C6.10505 13.0298 6.07953 13.0413 6.06838 13.0459C6.04658 13.0549 6.11773 13.0216 6.24741 13.0216V17.0216ZM8.35143 16.3558C8.38464 16.3364 8.41664 16.3179 8.44604 16.3014C8.46046 16.2933 8.47247 16.2867 8.48207 16.2815C8.49199 16.2762 8.49658 16.2739 8.49652 16.2739L6.70068 12.6997C6.55491 12.7729 6.4047 12.8605 6.33137 12.9034L8.35143 16.3558ZM6.04898 15.7512C6.04896 15.7512 6.04918 15.7514 6.04964 15.752C6.05009 15.7526 6.05074 15.7534 6.0516 15.7545C6.05333 15.7567 6.05567 15.7596 6.05865 15.7635C6.06473 15.7713 6.07227 15.7812 6.08141 15.7934C6.10058 15.8189 6.12015 15.8456 6.14433 15.8786L9.37126 13.515C9.33356 13.4635 9.24096 13.3361 9.14821 13.2224L6.04898 15.7512ZM6.14763 15.8831C6.3116 16.1057 7.13362 17.3779 8.6863 17.5804L9.20366 13.614C9.30639 13.6274 9.39589 13.6591 9.46404 13.6941C9.52794 13.7269 9.56102 13.7562 9.56418 13.759C9.56629 13.7609 9.55063 13.747 9.51421 13.7027C9.47536 13.6555 9.43578 13.6025 9.36796 13.5105L6.14763 15.8831ZM8.67546 17.579C8.82766 17.5997 8.96803 17.6068 9.09378 17.6068V13.6068C9.12034 13.6068 9.16231 13.6083 9.2145 13.6154L8.67546 17.579ZM9.09378 17.6068C10.393 17.6068 11.3175 16.7891 11.538 16.6144L9.05278 13.48C9.01232 13.5121 8.98056 13.5373 8.94929 13.5615C8.91893 13.585 8.89404 13.6037 8.87241 13.6193C8.8279 13.6515 8.80732 13.6633 8.80402 13.6651C8.80165 13.6664 8.82757 13.6518 8.87809 13.6368C8.93136 13.6211 9.00556 13.6068 9.09378 13.6068V17.6068ZM11.5402 16.6126C11.5756 16.5844 11.6044 16.5615 11.6327 16.5396C11.6461 16.5291 11.6572 16.5207 11.6661 16.514C11.6704 16.5107 11.6739 16.5082 11.6764 16.5063C11.6789 16.5045 11.6801 16.5036 11.68 16.5037L9.3635 13.2427C9.2368 13.3327 9.10353 13.4397 9.05058 13.4818L11.5402 16.6126ZM9.15045 16.329C9.15833 16.3365 9.17412 16.3518 9.19909 16.377C9.22331 16.4014 9.2482 16.427 9.27629 16.4559L12.1448 13.6681C12.0964 13.6183 11.9932 13.5116 11.8931 13.4174L9.15045 16.329ZM9.2762 16.4558C9.49068 16.6765 10.4503 17.7928 12.0006 17.7928V13.7928C12.0945 13.7928 12.1836 13.8102 12.2579 13.8361C12.3278 13.8606 12.3679 13.8866 12.3753 13.8916C12.381 13.8955 12.3656 13.8857 12.3231 13.8462C12.3025 13.8272 12.2785 13.8039 12.2484 13.7738C12.2173 13.7427 12.1859 13.7104 12.1449 13.6682L9.2762 16.4558ZM12.0006 17.7928C13.5507 17.7928 14.5099 16.677 14.7249 16.4558L11.8562 13.6682C11.8152 13.7104 11.7837 13.7428 11.7526 13.7739C11.7225 13.8041 11.6984 13.8274 11.6779 13.8464C11.6353 13.8859 11.6199 13.8956 11.6257 13.8917C11.6333 13.8866 11.6734 13.8605 11.7435 13.8361C11.8178 13.8102 11.9068 13.7928 12.0006 13.7928V17.7928ZM14.7248 16.4559C14.7551 16.4247 14.7789 16.4002 14.8029 16.3759C14.8274 16.3512 14.841 16.3381 14.846 16.3334L12.1127 13.413C12.008 13.5109 11.8998 13.6234 11.8563 13.6681L14.7248 16.4559ZM12.3253 16.5066C12.3243 16.5059 12.3276 16.5083 12.3362 16.5148C12.3446 16.521 12.3553 16.5292 12.3689 16.5397C12.3995 16.5635 12.4251 16.5839 12.4667 16.6168L14.9447 13.4768C14.9028 13.4437 14.7621 13.3307 14.6334 13.2398L12.3253 16.5066ZM12.4622 16.6132C12.6827 16.7883 13.6075 17.6068 14.9073 17.6068V13.6068C14.9958 13.6068 15.0701 13.6211 15.1234 13.6369C15.1739 13.6519 15.1998 13.6665 15.1974 13.6652C15.1941 13.6633 15.1735 13.6516 15.1291 13.6195C15.1076 13.6038 15.0827 13.5851 15.0525 13.5617C15.0213 13.5375 14.9896 13.5124 14.9493 13.4804L12.4622 16.6132ZM14.9073 17.6068C15.0417 17.6068 15.1733 17.5982 15.2994 17.5827L14.8113 13.6125C14.8398 13.609 14.8713 13.6068 14.9073 13.6068V17.6068ZM15.3176 17.5803C15.6691 17.5338 16.0105 17.4294 16.3278 17.2712L14.5436 13.6912C14.6219 13.6521 14.7062 13.6264 14.793 13.6149L15.3176 17.5803ZM14.0351 14.0535L13.0887 14.9819L15.8899 17.8373L16.8363 16.9089L14.0351 14.0535ZM14.0357 18.3575C15.4035 18.676 16.9573 18.6655 18.6785 18.2895L17.8249 14.3817C16.5757 14.6545 15.6327 14.6224 14.943 14.4617L14.0357 18.3575ZM18.6782 18.2896C22.1019 17.5422 24.3041 15.7403 25.1162 13.3397L21.3271 12.0579C21.0848 12.7741 20.287 13.8442 17.8251 14.3816L18.6782 18.2896ZM21.2581 12.3185C21.2274 12.4774 21.1818 12.633 21.122 12.7834L24.8389 14.2614C24.991 13.879 25.1069 13.4831 25.1852 13.0791L21.2581 12.3185ZM1.44128 14.2455L1.49488 14.2459L1.52483 10.2461L1.47123 10.2457L1.44128 14.2455ZM1.50986 14.246C1.63976 14.246 1.78071 14.2408 1.85248 14.2388L1.73683 10.2404C1.615 10.244 1.56395 10.246 1.50986 10.246V14.246ZM1.87459 14.238C1.96142 14.2345 2.00175 14.2332 2.03385 14.2332V10.2332C1.90835 10.2332 1.78789 10.2383 1.71472 10.2412L1.87459 14.238ZM2.03385 14.2332C2.03403 14.2332 2.03414 14.2332 2.03475 14.2332C2.03553 14.2332 2.03782 14.2333 2.04439 14.2336L2.22331 10.2376C2.18065 10.2357 2.11537 10.2332 2.03385 10.2332V14.2332ZM0.21741 12.8077C0.217242 12.8071 0.218498 12.8113 0.221213 12.8214C0.223838 12.8311 0.227077 12.8434 0.230951 12.8587C0.238969 12.8903 0.247165 12.9243 0.256583 12.9636L4.14631 12.0308C4.13031 11.9641 4.09282 11.806 4.05029 11.6635L0.21741 12.8077ZM0.257675 12.9681C0.319861 13.2248 0.485754 13.9881 0.987265 14.6598L4.19243 12.2666C4.23531 12.3241 4.23814 12.3502 4.22047 12.3012C4.21248 12.279 4.2022 12.247 4.18925 12.2C4.17588 12.1515 4.16283 12.099 4.14522 12.0263L0.257675 12.9681ZM3.85947 11.9179C3.5181 11.6374 3.2773 11.3673 3.11113 11.1225L-0.198622 13.3687C0.208011 13.9679 0.720001 14.5154 1.32022 15.0085L3.85947 11.9179ZM16.9522 16.8673C17.4032 16.5039 17.7154 16.0695 17.8527 15.8834L14.6339 13.5086C14.5578 13.6118 14.5139 13.6694 14.4742 13.7161C14.437 13.7597 14.4273 13.7648 14.4425 13.7527L16.9522 16.8673ZM17.847 15.8911C17.8753 15.853 17.8948 15.8268 17.9174 15.7968C17.9394 15.7676 17.9521 15.7515 17.9576 15.7447L14.849 13.2273C14.764 13.3323 14.6724 13.457 14.6396 13.5009L17.847 15.8911ZM15.4949 16.2678C15.5014 16.2711 15.5202 16.2811 15.5533 16.2997C15.5846 16.3173 15.6181 16.3366 15.6537 16.3573L17.6657 12.9003C17.5953 12.8592 17.4501 12.7747 17.3117 12.7042L15.4949 16.2678ZM15.6552 16.3583C15.8971 16.4987 16.7127 17.0208 17.7529 17.0208V13.0208C17.8817 13.0208 17.9529 13.0539 17.9323 13.0454C17.9216 13.041 17.8966 13.0297 17.8498 13.0047C17.8002 12.9781 17.7474 12.9477 17.6642 12.8993L15.6552 16.3583ZM17.7529 17.0208C18.0463 17.0208 18.3377 16.9805 18.6183 16.9014L17.5331 13.0514C17.6065 13.0307 17.6802 13.0208 17.7529 13.0208V17.0208ZM18.629 16.8983C20.16 16.4576 20.7729 15.0472 20.9015 14.7947L17.337 12.9797C17.2846 13.0826 17.254 13.1417 17.2232 13.1947C17.1944 13.2443 17.1815 13.26 17.184 13.2569C17.1875 13.2525 17.2167 13.2172 17.2763 13.1739C17.3398 13.1277 17.424 13.0828 17.5223 13.0545L18.629 16.8983ZM20.8999 14.798C20.9184 14.7617 20.9341 14.7311 20.9496 14.7016C20.9655 14.6712 20.975 14.654 20.979 14.6471L17.506 12.6625C17.4369 12.7835 17.3688 12.9177 17.3387 12.9764L20.8999 14.798ZM18.7072 15.5818C18.7027 15.5806 18.7162 15.5843 18.7545 15.5973C18.791 15.6096 18.826 15.622 18.8733 15.6386L20.1988 11.8646C20.1438 11.8453 19.9512 11.7759 19.7778 11.7278L18.7072 15.5818ZM18.8729 15.6384C19.0869 15.7137 19.7173 15.956 20.4345 15.956V11.956C20.4986 11.956 20.519 11.9665 20.4705 11.9539C20.4479 11.948 20.4162 11.9387 20.3698 11.9235C20.3212 11.9076 20.2712 11.89 20.1993 11.8648L18.8729 15.6384ZM20.4345 15.956C20.7085 15.956 20.936 15.9172 21.0793 15.8887L20.2985 11.9657C20.2769 11.97 20.3372 11.956 20.4345 11.956V15.956ZM19.6087 12.244C19.087 12.5788 18.3559 12.8963 17.3418 13.1176L18.1944 17.0256C19.5931 16.7205 20.7835 16.2428 21.769 15.6104L19.6087 12.244ZM17.3336 13.1194C16.7895 13.2405 16.2342 13.3044 15.6768 13.3101L15.7178 17.3099C16.5538 17.3013 17.3866 17.2055 18.2026 17.0238L17.3336 13.1194ZM23.295 14.2179C23.5689 13.7077 23.6885 13.1899 23.7418 12.9699L19.8543 12.0277C19.8259 12.1449 19.8082 12.2132 19.7898 12.271C19.7723 12.326 19.7641 12.3384 19.7707 12.3261L23.295 14.2179ZM23.7424 12.9674C23.7523 12.9263 23.7606 12.8918 23.769 12.8585C23.773 12.8426 23.7764 12.8295 23.7792 12.8192C23.7806 12.8141 23.7816 12.8102 23.7824 12.8073C23.7832 12.8045 23.7836 12.8032 23.7835 12.8035L19.947 11.6717C19.9061 11.8102 19.8688 11.9675 19.8537 12.0302L23.7424 12.9674ZM21.9862 14.2339C21.9709 14.2349 21.9612 14.2351 21.9585 14.2352C21.9556 14.2353 21.9569 14.2352 21.9633 14.2352V10.2352C21.9004 10.2352 21.8248 10.2364 21.7443 10.2413L21.9862 14.2339ZM21.9633 14.2352C22.0034 14.2352 22.037 14.2367 22.1451 14.2399L22.2638 10.2417C22.2103 10.2401 22.0815 10.2352 21.9633 10.2352V14.2352ZM22.1293 14.2394C22.1736 14.2411 22.2139 14.2419 22.2409 14.2425C22.2723 14.2432 22.2859 14.2434 22.3002 14.2439L22.4223 10.2457C22.2772 10.2413 22.3566 10.2451 22.2796 10.2422L22.1293 14.2394ZM20.6443 11.219C20.5136 11.4378 20.3528 11.6372 20.1666 11.8114L22.8991 14.7326C23.3586 14.3028 23.7555 13.8107 24.0782 13.2706L20.6443 11.219ZM21.5837 9.98062C21.9044 9.62436 22.2639 9.5221 22.3852 9.49443C22.5059 9.46689 22.5677 9.4736 22.492 9.4736V13.4736C22.6624 13.4736 22.9554 13.4671 23.2747 13.3943C23.5946 13.3213 24.1201 13.1416 24.5564 12.657L21.5837 9.98062ZM22.492 9.4736C22.4484 9.4736 22.3958 9.47197 22.2993 9.46861C22.2163 9.46572 22.0918 9.4612 21.9641 9.4612V13.4612C22.0104 13.4612 22.065 13.4629 22.1601 13.4662C22.2417 13.469 22.3661 13.4736 22.492 13.4736V9.4736ZM21.9641 9.4612C21.7494 9.4612 20.909 9.44467 20.1824 9.97562L22.5425 13.2052C22.2888 13.3906 22.0619 13.4398 21.9932 13.4525C21.9211 13.4658 21.8957 13.4612 21.9641 13.4612V9.4612ZM20.1812 9.97649C19.8725 10.2025 19.6699 10.4659 19.54 10.6771C19.4111 10.8866 19.3283 11.0862 19.2749 11.2343C19.1783 11.5018 19.1109 11.802 19.0862 11.9033C19.0434 12.0785 19.0376 12.0733 19.0603 12.0223C19.0804 11.977 19.2438 11.6111 19.7073 11.3676L21.568 14.9085C22.2554 14.5473 22.5749 13.963 22.7151 13.6478C22.8579 13.3269 22.9359 13.0003 22.9721 12.8518C22.997 12.7499 23.0085 12.7003 23.0235 12.643C23.037 12.5915 23.0413 12.5812 23.0372 12.5925C23.0341 12.6011 23.0083 12.6731 22.9469 12.7729C22.8845 12.8744 22.76 13.046 22.5437 13.2043L20.1812 9.97649ZM19.7195 11.3612C20.013 11.2095 20.279 11.182 20.4349 11.182V15.182C20.7412 15.182 21.1431 15.1281 21.5559 14.9148L19.7195 11.3612ZM20.4349 11.182C20.6055 11.182 20.7026 11.2153 20.6634 11.2044C20.6305 11.1952 20.5824 11.179 20.4488 11.132C20.3435 11.0949 20.1588 11.0292 19.9645 10.9763C19.7747 10.9247 19.4726 10.8552 19.1201 10.8548L19.1161 14.8548C18.9629 14.8546 18.8781 14.8261 18.9137 14.8358C18.945 14.8443 18.9939 14.8604 19.121 14.9051C19.2197 14.9399 19.4025 15.0054 19.5894 15.0575C19.7701 15.1079 20.0761 15.182 20.4349 15.182V11.182ZM19.1579 10.8552C18.8399 10.8489 18.5235 10.9028 18.2255 11.0142L19.6258 14.761C19.4508 14.8264 19.265 14.8581 19.0782 14.8544L19.1579 10.8552ZM18.1953 11.0257C17.5082 11.2952 17.1328 11.8122 16.983 12.0352C16.8176 12.2815 16.6809 12.5603 16.6287 12.6624C16.5428 12.8305 16.5354 12.8321 16.5607 12.7979C16.5786 12.7737 16.8095 12.4534 17.3091 12.31L18.4127 16.1548C19.1513 15.9428 19.5804 15.4414 19.7749 15.1788C19.9769 14.9062 20.1243 14.6122 20.1906 14.4825C20.2355 14.3946 20.2593 14.3473 20.2845 14.3008C20.3079 14.2572 20.3128 14.2516 20.3035 14.2654C20.2958 14.277 20.2503 14.3444 20.162 14.4295C20.0716 14.5165 19.9055 14.6516 19.656 14.7495L18.1953 11.0257ZM17.3181 12.3075C17.4654 12.2659 17.6178 12.2455 17.7709 12.2469L17.7357 16.2467C17.9615 16.2487 18.1864 16.2186 18.4037 16.1573L17.3181 12.3075ZM17.7533 12.2468C17.9285 12.2468 18.0598 12.2766 18.1297 12.2962C18.2003 12.3161 18.2412 12.335 18.2432 12.3359C18.2463 12.3373 18.2334 12.3315 18.1956 12.3106C18.1563 12.289 18.1137 12.2643 18.0455 12.2246C17.9368 12.1615 17.7186 12.033 17.4831 11.9277C17.2599 11.8279 16.8385 11.662 16.3153 11.662V15.662C16.1518 15.662 16.0285 15.6353 15.9606 15.6168C15.8924 15.5983 15.8528 15.5804 15.8498 15.579C15.8458 15.5773 15.8577 15.5825 15.8936 15.6021C15.9305 15.6222 15.9723 15.6463 16.0376 15.6842C16.1395 15.7434 16.3555 15.8713 16.5828 15.975C16.7945 16.0716 17.2208 16.2468 17.7533 16.2468V12.2468ZM16.3153 11.662C16.1583 11.662 16.003 11.6769 15.8502 11.7062L16.6036 15.6346C16.5092 15.6527 16.4123 15.662 16.3153 15.662V11.662ZM15.8301 11.7102C15.1036 11.8572 14.6432 12.3032 14.4529 12.5033C14.2442 12.7226 14.0626 12.9768 13.9915 13.0733C13.8767 13.2289 13.8671 13.233 13.8926 13.2079C13.9071 13.1936 14.1808 12.9135 14.6939 12.8459L15.216 16.8117C15.9736 16.7119 16.4708 16.2826 16.6974 16.0597C16.935 15.826 17.1261 15.5621 17.2105 15.4478C17.3383 15.2744 17.3541 15.257 17.3509 15.2604C17.3398 15.2721 17.282 15.3322 17.1787 15.402C17.0725 15.4736 16.8854 15.5777 16.6237 15.6306L15.8301 11.7102ZM14.7509 12.8392C14.7627 12.838 14.7819 12.8362 14.8064 12.8347C14.8305 12.8332 14.865 12.8316 14.9073 12.8316V16.8316C15.0179 16.8316 15.109 16.8235 15.159 16.8184L14.7509 12.8392ZM14.9073 12.8316C15.1419 12.8316 15.3209 12.8825 15.4236 12.9203C15.5247 12.9575 15.5857 12.9944 15.5972 13.0014C15.6005 13.0034 15.5773 12.9885 15.4252 12.8678C15.3217 12.7858 15.0936 12.6014 14.8396 12.4485C14.6016 12.3052 14.1026 12.038 13.4457 12.038V16.038C13.2223 16.038 13.0506 15.991 12.9494 15.9547C12.8499 15.919 12.7896 15.8833 12.7767 15.8755C12.7698 15.8714 12.7929 15.8854 12.9396 16.0018C13.0376 16.0795 13.2636 16.263 13.5101 16.4138C13.737 16.5525 14.2403 16.8316 14.9073 16.8316V12.8316ZM13.3823 12.039L13.3571 12.0398L13.484 16.0378L13.5092 16.037L13.3823 12.039ZM13.2945 12.0428C12.5569 12.0893 12.0407 12.4653 11.8215 12.6398C11.5826 12.8299 11.3677 13.0577 11.2823 13.1456C11.146 13.2859 11.1349 13.29 11.1613 13.2701C11.1742 13.2605 11.4822 13.0176 12.001 13.0176V17.0176C12.7651 17.0176 13.3139 16.6561 13.5647 16.4676C13.829 16.269 14.053 16.034 14.1509 15.9333C14.2996 15.7803 14.3179 15.7652 14.313 15.769C14.3 15.7794 14.2346 15.8309 14.1229 15.8856C14.008 15.9419 13.8101 16.0182 13.5466 16.0348L13.2945 12.0428ZM12.001 13.0176C12.5193 13.0176 12.8273 13.2602 12.8406 13.2702C12.8672 13.2902 12.8563 13.2863 12.7201 13.1461C12.6348 13.0583 12.4199 12.8304 12.1811 12.6401C11.9619 12.4655 11.4456 12.0894 10.7078 12.0428L10.4558 16.0348C10.1922 16.0182 9.99414 15.9419 9.87915 15.8855C9.76733 15.8307 9.70183 15.7791 9.68871 15.7687C9.68378 15.7647 9.70189 15.7797 9.8506 15.9328C9.94844 16.0336 10.1725 16.2687 10.437 16.4675C10.6882 16.6564 11.237 17.0176 12.001 17.0176V13.0176ZM10.691 12.0418C10.6512 12.0396 10.6115 12.0384 10.5718 12.0381L10.5405 16.0379C10.5179 16.0378 10.4952 16.0371 10.4725 16.0358L10.691 12.0418ZM10.5562 12.038C9.89939 12.038 9.40043 12.3051 9.16241 12.4484C8.90837 12.6013 8.68029 12.7856 8.57671 12.8677C8.42447 12.9884 8.40126 13.0034 8.4044 13.0015C8.41589 12.9945 8.47678 12.9576 8.57794 12.9204C8.68054 12.8826 8.85973 12.8316 9.09458 12.8316V16.8316C9.76177 16.8316 10.2651 16.5523 10.4917 16.4137C10.7381 16.263 10.9641 16.0796 11.062 16.0019C11.2087 15.8856 11.2318 15.8715 11.225 15.8756C11.2121 15.8833 11.1518 15.9191 11.0524 15.9547C10.9513 15.991 10.7796 16.038 10.5562 16.038V12.038ZM9.08506 12.8316C9.15387 12.8313 9.22263 12.8353 9.29092 12.8437L8.80304 16.8139C8.90292 16.8261 9.00348 16.8321 9.1041 16.8316L9.08506 12.8316ZM9.30802 12.8459C9.82148 12.9135 10.0954 13.194 10.1101 13.2085C10.1356 13.2337 10.1262 13.2297 10.0113 13.0739C9.94003 12.9772 9.75833 12.7226 9.54917 12.5029C9.35783 12.3019 8.89728 11.8566 8.17081 11.71L7.37918 15.6308C7.11817 15.5781 6.93115 15.4745 6.82472 15.4028C6.72116 15.3329 6.66324 15.2727 6.65189 15.2608C6.64825 15.2569 6.66385 15.2741 6.79145 15.4472C6.8755 15.5612 7.06653 15.8253 7.30401 16.0591C7.53066 16.2822 8.02789 16.7119 8.78594 16.8117L9.30802 12.8459ZM8.1699 11.7098C8.00472 11.6765 7.83652 11.6605 7.66803 11.6621L7.70516 15.6619C7.59603 15.6629 7.48708 15.6526 7.38008 15.631L8.1699 11.7098ZM7.6866 11.662C7.16344 11.662 6.74207 11.8278 6.51897 11.9276C6.28358 12.0329 6.06536 12.1613 5.95665 12.2244C5.88836 12.264 5.84571 12.2887 5.80642 12.3104C5.76858 12.3312 5.75566 12.337 5.75878 12.3356C5.76069 12.3348 5.80149 12.3159 5.87197 12.2961C5.94179 12.2765 6.07288 12.2468 6.24781 12.2468V16.2468C6.78 16.2468 7.2062 16.0718 7.4181 15.9752C7.64547 15.8716 7.86152 15.7437 7.96365 15.6844C8.02896 15.6465 8.07087 15.6224 8.10781 15.6023C8.14373 15.5826 8.15575 15.5774 8.15182 15.5791C8.14889 15.5805 8.10927 15.5983 8.04118 15.6169C7.97334 15.6353 7.85011 15.662 7.6866 15.662V11.662ZM6.23023 12.2469C6.38327 12.2455 6.53574 12.2659 6.68305 12.3075L5.59737 16.1573C5.81469 16.2186 6.03961 16.2487 6.26539 16.2467L6.23023 12.2469ZM6.69305 12.3103C7.1919 12.4538 7.42231 12.7735 7.44012 12.7976C7.46531 12.8316 7.45785 12.8298 7.37184 12.6616C7.31957 12.5594 7.18266 12.2803 7.01687 12.0338C6.8667 11.8105 6.4902 11.293 5.80142 11.0243L4.34782 14.7509C4.09765 14.6533 3.931 14.5181 3.84011 14.4308C3.75139 14.3456 3.7056 14.2778 3.69767 14.266C3.68824 14.252 3.69305 14.2574 3.7165 14.3009C3.74155 14.3473 3.76538 14.3946 3.81029 14.4824C3.87653 14.612 4.02404 14.906 4.22594 15.1786C4.42046 15.4412 4.84932 15.9422 5.58737 16.1545L6.69305 12.3103ZM5.77366 11.0137C5.47636 10.9028 5.1608 10.849 4.84353 10.8552L4.92092 14.8544C4.7349 14.858 4.54988 14.8265 4.37558 14.7615L5.77366 11.0137ZM4.88222 10.8548C4.52905 10.8548 4.22648 10.9243 4.03645 10.976C3.842 11.0289 3.65718 11.0947 3.55198 11.1317C3.41842 11.1787 3.3705 11.1949 3.33769 11.2041C3.29872 11.2149 3.39595 11.1816 3.56664 11.1816V15.1816C3.92552 15.1816 4.2315 15.1074 4.41224 15.057C4.59914 15.0049 4.78189 14.9394 4.88038 14.9047C5.00722 14.86 5.05583 14.8441 5.08659 14.8357C5.12177 14.8261 5.0362 14.8548 4.88222 14.8548V10.8548ZM3.56664 11.1816C3.7201 11.1816 3.98823 11.2083 4.28535 11.3628L2.43993 14.9116C2.85705 15.1285 3.26278 15.1816 3.56664 15.1816V11.1816ZM4.29609 11.3684C4.75787 11.6121 4.92034 11.9767 4.94009 12.0211C4.96255 12.0716 4.95661 12.0763 4.91386 11.9013C4.88913 11.8002 4.82173 11.5003 4.72542 11.2334C4.67211 11.0856 4.58955 10.8862 4.4609 10.6768C4.3313 10.4659 4.12879 10.2021 3.81969 9.97585L1.4568 13.2034C1.2399 13.0446 1.1152 12.8724 1.05293 12.771C0.991609 12.6713 0.965886 12.5994 0.962837 12.5909C0.958824 12.5798 0.963216 12.5903 0.976724 12.6419C0.991763 12.6994 1.0033 12.749 1.02822 12.851C1.06457 12.9997 1.14263 13.3259 1.28522 13.6465C1.42509 13.961 1.74381 14.5443 2.42918 14.906L4.29609 11.3684ZM3.8206 9.97652C3.09121 9.44189 2.24668 9.4596 2.03425 9.4596V13.4596C2.10434 13.4596 2.07877 13.4643 2.00643 13.4509C1.93676 13.438 1.70947 13.3886 1.45589 13.2027L3.8206 9.97652ZM2.03425 9.4596C1.9065 9.4596 1.78238 9.46414 1.69997 9.46703C1.6041 9.47039 1.55259 9.472 1.50986 9.472V13.472C1.63552 13.472 1.75941 13.4674 1.84024 13.4646C1.93452 13.4613 1.98841 13.4596 2.03425 13.4596V9.4596ZM1.50986 9.472C1.43154 9.472 1.49357 9.46516 1.61473 9.49276C1.73721 9.52066 2.10041 9.62412 2.4224 9.98511L-0.562674 12.6477C-0.125084 13.1383 0.40451 13.3195 0.72629 13.3928C1.04674 13.4658 1.34097 13.472 1.50986 13.472V9.472ZM2.4182 9.98042C2.63125 10.2178 2.71329 10.4459 2.74283 10.5444C2.75974 10.6008 2.76813 10.644 2.77227 10.6693C2.7765 10.6951 2.7777 10.7108 2.77795 10.7144C2.77829 10.7193 2.77694 10.7012 2.77929 10.6564C2.78153 10.6136 2.78637 10.561 2.7941 10.5006L-1.17357 9.99303C-1.20646 10.2502 -1.23877 10.6128 -1.21242 10.9919C-1.19279 11.2742 -1.11972 12.0271 -0.55848 12.6524L2.4182 9.98042ZM-0.670307 11.5914C0.642859 13.0374 2.84805 13.7827 4.91309 14.2074C7.09335 14.6558 9.60699 14.8388 12.0006 14.8388V10.8388C9.78016 10.8388 7.55305 10.6666 5.71885 10.2894C3.76943 9.88849 2.68645 9.33784 2.29083 8.90221L-0.670307 11.5914ZM12.0006 14.8388C14.3943 14.8388 16.908 14.6558 19.0881 14.2074C21.1531 13.7827 23.3582 13.0373 24.6712 11.5912L21.7097 8.90239C21.3143 9.33787 20.2317 9.88849 18.2823 10.2894C16.4483 10.6666 14.2212 10.8388 12.0006 10.8388V14.8388ZM21.2065 10.5001C21.2143 10.5605 21.2191 10.6131 21.2213 10.656C21.2236 10.7008 21.2223 10.7191 21.2226 10.7144C21.2228 10.7109 21.224 10.6953 21.2283 10.6696C21.2324 10.6445 21.2407 10.6015 21.2576 10.5454C21.287 10.4474 21.3687 10.2205 21.5805 9.98411L24.5595 12.6535C25.1191 12.0291 25.1929 11.2779 25.2128 10.9943C25.2394 10.6148 25.2073 10.2516 25.1743 9.99354L21.2065 10.5001Z" fill="#929292" mask="url(#path-1-inside-1_70_6194)"/>
</svg>
